<?xml version="1.0" encoding="UTF-8"?>
<svg xmlns="http://www.w3.org/2000/svg" xmlns:xlink="http://www.w3.org/1999/xlink" width="375pt" height="374.999991pt" viewBox="0 0 375 374.999991" version="1.2">
<defs>
<clipPath id="clip1">
  <path d="M 26 283 L 349 283 L 349 315.914062 L 26 315.914062 Z M 26 283 "/>
</clipPath>
<clipPath id="clip2">
  <path d="M 58 59.414062 L 171 59.414062 L 171 134 L 58 134 Z M 58 59.414062 "/>
</clipPath>
<clipPath id="clip3">
  <path d="M 58 59.414062 L 171 59.414062 L 171 67 L 58 67 Z M 58 59.414062 "/>
</clipPath>
<clipPath id="clip4">
  <path d="M 204 59.414062 L 317 59.414062 L 317 134 L 204 134 Z M 204 59.414062 "/>
</clipPath>
<clipPath id="clip5">
  <path d="M 204 59.414062 L 317 59.414062 L 317 67 L 204 67 Z M 204 59.414062 "/>
</clipPath>
</defs>
<g id="surface1">
<rect x="0" y="0" width="375" height="374.999991" style="fill:rgb(100%,100%,100%);fill-opacity:1;stroke:none;"/>
<rect x="0" y="0" width="375" height="374.999991" style="fill:rgb(100%,100%,100%);fill-opacity:1;stroke:none;"/>
<rect x="0" y="0" width="375" height="374.999991" style="fill:rgb(100%,100%,100%);fill-opacity:1;stroke:none;"/>
<path style=" stroke:none;fill-rule:nonzero;fill:rgb(82.749939%,82.348633%,82.348633%);fill-opacity:1;" d="M 69.480469 300.746094 C 57.84375 300.746094 48.410156 291.289062 48.410156 279.621094 L 48.410156 123.0625 C 48.410156 111.394531 57.84375 101.9375 69.480469 101.9375 L 305.542969 101.9375 C 317.179688 101.9375 326.617188 111.394531 326.617188 123.0625 L 326.617188 279.621094 C 326.617188 291.289062 317.179688 300.746094 305.542969 300.746094 L 69.480469 300.746094 "/>
<path style=" stroke:none;fill-rule:nonzero;fill:rgb(65.879822%,89.019775%,98.039246%);fill-opacity:1;" d="M 76.796875 298.867188 C 65.882812 298.867188 57.035156 289.996094 57.035156 279.050781 L 57.035156 132.199219 C 57.035156 121.253906 65.882812 112.382812 76.796875 112.382812 L 298.226562 112.382812 C 309.144531 112.382812 317.992188 121.253906 317.992188 132.199219 L 317.992188 279.050781 C 317.992188 289.996094 309.144531 298.867188 298.226562 298.867188 L 76.796875 298.867188 "/>
<path style=" stroke:none;fill-rule:nonzero;fill:rgb(70.979309%,90.589905%,98.039246%);fill-opacity:1;" d="M 281.9375 132.9375 L 93.085938 132.9375 C 86.46875 132.9375 81.085938 138.335938 81.085938 144.964844 L 81.085938 262.976562 C 81.085938 269.613281 86.46875 275.003906 93.085938 275.003906 L 281.9375 275.003906 C 288.558594 275.003906 293.941406 269.613281 293.941406 262.976562 L 293.941406 144.964844 C 293.941406 138.335938 288.558594 132.9375 281.9375 132.9375 "/>
<path style=" stroke:none;fill-rule:nonzero;fill:rgb(93.728638%,40.388489%,39.219666%);fill-opacity:1;" d="M 240.308594 275.003906 C 240.609375 269.238281 240.769531 263.796875 240.855469 258.769531 C 241.03125 248.207031 240.890625 239.460938 240.742188 233.332031 C 240.660156 230.261719 240.578125 227.851562 240.515625 226.195312 C 240.441406 224.511719 240.402344 223.617188 240.402344 223.617188 L 230.96875 223.195312 C 230.96875 223.195312 230.875 225.132812 230.886719 226.667969 C 230.886719 228.234375 230.882812 230.542969 230.847656 233.492188 C 230.773438 239.390625 230.589844 247.832031 230.054688 257.859375 C 229.757812 263.175781 229.367188 268.976562 228.792969 275.003906 L 240.308594 275.003906 "/>
<path style=" stroke:none;fill-rule:nonzero;fill:rgb(93.728638%,40.388489%,39.219666%);fill-opacity:1;" d="M 229.328125 220.777344 C 229.144531 220.441406 228.957031 220.105469 228.757812 219.777344 C 228.269531 218.984375 227.738281 218.230469 227.125 217.53125 C 226.039062 216.304688 225.011719 215.019531 224.914062 213.304688 C 224.890625 212.929688 224.878906 212.132812 225.390625 212.058594 C 225.902344 211.984375 226.457031 212.644531 226.785156 212.949219 C 227.152344 213.289062 227.726562 213.96875 228.296875 213.894531 C 228.996094 213.800781 229.171875 212.597656 229.28125 212.070312 C 229.78125 209.535156 229.589844 206.828125 230.371094 204.347656 C 230.601562 203.628906 230.96875 202.980469 231.585938 202.53125 C 232.164062 202.109375 232.871094 201.847656 233.5625 201.683594 C 234.378906 201.484375 235.246094 201.441406 236.058594 201.6875 C 237.097656 202.003906 237.929688 202.757812 238.574219 203.609375 C 240.339844 205.9375 241.191406 209.0625 241.523438 211.933594 C 241.628906 212.820312 241.578125 213.769531 241.558594 214.664062 C 241.542969 215.605469 241.476562 216.546875 241.367188 217.480469 C 241.160156 219.273438 240.816406 221.054688 240.507812 222.835938 C 240.34375 223.78125 240.289062 224.96875 239.695312 225.769531 C 239.070312 226.617188 237.894531 227.074219 236.894531 227.226562 C 235.242188 227.472656 233.800781 226.722656 232.492188 225.78125 C 232.339844 225.671875 232.085938 225.546875 231.96875 225.398438 C 231.773438 225.144531 231.621094 224.863281 231.433594 224.597656 C 231.28125 224.386719 231.089844 224.210938 230.929688 223.996094 C 230.476562 223.398438 230.25 222.59375 229.914062 221.921875 C 229.726562 221.539062 229.53125 221.160156 229.328125 220.777344 "/>
<path style=" stroke:none;fill-rule:nonzero;fill:rgb(8.628845%,11.369324%,22.749329%);fill-opacity:1;" d="M 145.121094 275.144531 L 226.113281 275.144531 C 225.957031 272.835938 225.523438 270.601562 224.847656 268.707031 C 222.777344 263.570312 219.214844 258.761719 216.378906 254.277344 C 212.941406 248.957031 213.351562 243.992188 214.445312 237.902344 C 216.632812 226.945312 223.058594 217.230469 219.175781 205.917969 C 217.277344 200.496094 214.742188 197.652344 215.023438 191.984375 C 215.222656 187.070312 215.632812 180.890625 212.671875 176.925781 C 212.007812 175.996094 211 175.152344 210.480469 174.578125 C 210.398438 168.324219 209.117188 162.820312 203.679688 159.683594 C 198.453125 156.710938 190.5 155.804688 186.84375 162.464844 C 182.8125 158.734375 174.273438 161.855469 170.175781 163.746094 C 163.429688 166.953125 159.089844 173.523438 157.617188 181.160156 C 156.273438 188.277344 157.023438 195.90625 156.578125 203.070312 C 156.171875 210.464844 154.058594 217.023438 150.570312 223.402344 C 144.578125 235.457031 135.554688 246.722656 138.976562 261.546875 C 140.210938 266.742188 142.363281 271.210938 145.121094 275.144531 "/>
<path style=" stroke:none;fill-rule:nonzero;fill:rgb(8.628845%,11.369324%,22.749329%);fill-opacity:1;" d="M 210.265625 174.320312 L 210.136719 174.074219 L 210.265625 174.320312 "/>
<path style=" stroke:none;fill-rule:nonzero;fill:rgb(93.728638%,40.388489%,39.219666%);fill-opacity:1;" d="M 196.253906 270.742188 C 196.628906 272.140625 197.152344 273.585938 197.699219 275.144531 L 213.730469 275.144531 C 213.34375 273.960938 212.988281 272.796875 212.660156 271.707031 C 212.242188 269.917969 211.757812 268.265625 211.515625 266.839844 C 211.238281 265.382812 210.96875 264.265625 210.796875 263.019531 C 210.421875 260.695312 210.210938 259.363281 210.210938 259.363281 L 194.09375 262.714844 C 194.09375 262.714844 194.425781 264.019531 195 266.308594 C 195.246094 267.382812 195.753906 269.015625 196.253906 270.742188 "/>
<path style=" stroke:none;fill-rule:nonzero;fill:rgb(100%,100%,100%);fill-opacity:1;" d="M 199.1875 225.890625 C 199.1875 225.890625 209.382812 242.359375 212.640625 262.695312 C 212.640625 262.695312 205.140625 270.601562 195.589844 272.984375 C 195.589844 272.984375 172.636719 231.925781 199.1875 225.890625 "/>
<path style=" stroke:none;fill-rule:nonzero;fill:rgb(94.898987%,94.898987%,94.898987%);fill-opacity:1;" d="M 204.136719 275.144531 C 204.3125 274.101562 204.511719 273.089844 204.742188 272.152344 C 204.742188 272.152344 217.609375 261.898438 208.636719 248.402344 C 208.636719 248.402344 203.648438 242.890625 202.402344 235.390625 C 201.15625 227.890625 200.40625 224.640625 193.925781 223.640625 C 187.441406 222.640625 162.828125 215.667969 160.023438 245.140625 C 158.503906 261.148438 163.617188 266.214844 167.6875 275.144531 L 204.136719 275.144531 "/>
<path style=" stroke:none;fill-rule:nonzero;fill:rgb(93.728638%,40.388489%,39.219666%);fill-opacity:1;" d="M 193.425781 218.050781 L 193.425781 205.265625 L 177.4375 196.765625 L 177.4375 218.050781 L 193.425781 218.050781 "/>
<path style=" stroke:none;fill-rule:nonzero;fill:rgb(69.40918%,30.198669%,67.83905%);fill-opacity:1;" d="M 193.425781 223.558594 L 193.425781 217.925781 C 188.085938 218.253906 182.464844 217.421875 177.4375 215.761719 L 177.4375 222.585938 L 177.441406 222.59375 C 177.332031 222.613281 179.710938 228.339844 180.867188 230.875 C 182.511719 234.496094 184.441406 237.910156 186.417969 241.351562 C 189.144531 246.09375 191.691406 251.421875 193.558594 256.734375 C 193.71875 251.304688 193.628906 245.871094 193.78125 240.433594 C 193.867188 237.28125 193.472656 223.566406 193.425781 223.558594 "/>
<path style=" stroke:none;fill-rule:nonzero;fill:rgb(8.239746%,10.198975%,21.179199%);fill-opacity:1;" d="M 193.425781 217.042969 L 193.425781 205.265625 L 177.4375 196.765625 L 177.4375 207.464844 C 181.40625 212.527344 187.230469 215.382812 193.425781 217.042969 "/>
<path style=" stroke:none;fill-rule:nonzero;fill:rgb(8.628845%,11.369324%,22.749329%);fill-opacity:1;" d="M 175.011719 266.496094 C 180.3125 271.949219 187.535156 272.203125 194.007812 268.664062 C 195.222656 268 194.144531 266.140625 192.929688 266.808594 C 187.292969 269.894531 181.15625 269.738281 176.523438 264.976562 C 175.558594 263.984375 174.042969 265.507812 175.011719 266.496094 "/>
<path style=" stroke:none;fill-rule:nonzero;fill:rgb(8.628845%,11.369324%,22.749329%);fill-opacity:1;" d="M 198.78125 268.527344 C 199.113281 269.253906 199.96875 269.578125 200.664062 269.832031 C 201.625 270.175781 202.65625 270.351562 203.660156 270.523438 C 205.011719 270.75 205.589844 268.679688 204.230469 268.449219 C 203.503906 268.328125 202.785156 268.1875 202.074219 268.007812 C 201.695312 267.914062 200.75 267.699219 200.628906 267.445312 C 200.050781 266.183594 198.203125 267.28125 198.78125 268.527344 "/>
<path style=" stroke:none;fill-rule:nonzero;fill:rgb(93.728638%,40.388489%,39.219666%);fill-opacity:1;" d="M 157.484375 272.722656 C 157.535156 273.382812 157.585938 274.050781 157.636719 274.738281 C 157.652344 274.871094 157.675781 275.011719 157.691406 275.144531 L 172.832031 275.144531 L 172.820312 274.980469 C 172.789062 274.492188 172.714844 274.03125 172.71875 273.550781 C 172.722656 273.066406 172.730469 272.589844 172.734375 272.125 C 172.734375 271.664062 172.738281 271.210938 172.742188 270.765625 C 172.761719 270.316406 172.820312 269.871094 172.855469 269.4375 C 172.945312 268.574219 172.988281 267.738281 173.089844 266.992188 C 173.214844 266.261719 173.328125 265.578125 173.4375 264.945312 C 173.550781 264.292969 173.589844 263.800781 173.769531 263.105469 C 174.359375 260.542969 174.699219 259.085938 174.699219 259.085938 L 158.527344 256.027344 C 158.527344 256.027344 158.304688 257.511719 157.917969 260.105469 C 157.816406 260.691406 157.746094 261.652344 157.660156 262.566406 C 157.578125 263.503906 157.488281 264.515625 157.398438 265.601562 C 157.339844 266.671875 157.359375 267.785156 157.339844 268.96875 C 157.34375 269.558594 157.324219 270.15625 157.34375 270.785156 C 157.390625 271.414062 157.4375 272.0625 157.484375 272.722656 "/>
<path style=" stroke:none;fill-rule:nonzero;fill:rgb(100%,100%,100%);fill-opacity:1;" d="M 156.273438 265.417969 L 175.265625 269.367188 C 175.265625 269.367188 187.339844 233.714844 174.84375 228.320312 C 162.34375 222.933594 158.273438 242.867188 156.273438 265.417969 "/>
<path style=" stroke:none;fill-rule:nonzero;fill:rgb(93.728638%,40.388489%,39.219666%);fill-opacity:1;" d="M 173.140625 179.507812 C 172.730469 180.996094 172.507812 182.554688 172.507812 184.171875 L 172.507812 195.121094 C 172.507812 204.769531 180.304688 212.589844 189.929688 212.589844 C 199.550781 212.589844 207.351562 204.769531 207.351562 195.121094 L 207.351562 184.171875 C 207.351562 182.554688 207.128906 180.996094 206.71875 179.507812 C 206.71875 179.507812 201.578125 158.792969 180.214844 168.082031 C 176.589844 169.660156 173.140625 179.507812 173.140625 179.507812 "/>
<path style=" stroke:none;fill-rule:nonzero;fill:rgb(8.628845%,11.369324%,22.749329%);fill-opacity:1;" d="M 186.011719 189.808594 C 186.011719 190.910156 186.566406 191.800781 187.25 191.800781 C 187.9375 191.800781 188.492188 190.910156 188.492188 189.808594 C 188.492188 188.710938 187.9375 187.816406 187.25 187.816406 C 186.566406 187.816406 186.011719 188.710938 186.011719 189.808594 "/>
<path style=" stroke:none;fill-rule:nonzero;fill:rgb(8.628845%,11.369324%,22.749329%);fill-opacity:1;" d="M 200.390625 189.808594 C 200.390625 190.910156 200.941406 191.800781 201.628906 191.800781 C 202.3125 191.800781 202.867188 190.910156 202.867188 189.808594 C 202.867188 188.710938 202.3125 187.816406 201.628906 187.816406 C 200.941406 187.816406 200.390625 188.710938 200.390625 189.808594 "/>
<path style=" stroke:none;fill-rule:nonzero;fill:rgb(8.628845%,11.369324%,22.749329%);fill-opacity:1;" d="M 194.289062 196.304688 L 196.980469 196.304688 C 197.179688 196.304688 197.339844 196.148438 197.339844 195.949219 C 197.339844 194.753906 196.039062 189.808594 195.980469 189.601562 C 195.933594 189.40625 195.738281 189.300781 195.546875 189.347656 C 195.359375 189.398438 195.242188 189.59375 195.292969 189.785156 C 195.628906 191.050781 196.441406 194.289062 196.597656 195.597656 L 194.289062 195.597656 C 194.097656 195.597656 193.9375 195.75 193.9375 195.949219 C 193.9375 196.148438 194.097656 196.304688 194.289062 196.304688 "/>
<path style=" stroke:none;fill-rule:nonzero;fill:rgb(8.628845%,11.369324%,22.749329%);fill-opacity:1;" d="M 191.257812 183.445312 C 191.234375 183.066406 191.207031 182.390625 190.75 182.214844 C 189.929688 181.902344 188.945312 181.800781 188.136719 182.015625 C 187.15625 182.273438 186.199219 182.621094 185.285156 183.046875 C 184.746094 183.300781 184.199219 183.585938 183.703125 183.90625 C 183.289062 184.175781 182.808594 184.546875 182.839844 185.101562 C 182.855469 185.375 182.914062 185.851562 183.277344 185.84375 C 183.558594 185.832031 183.808594 185.617188 184.058594 185.507812 C 184.65625 185.25 185.285156 185.066406 185.921875 184.9375 C 186.570312 184.800781 187.191406 184.734375 187.855469 184.777344 C 188.488281 184.820312 189.089844 184.976562 189.703125 185.128906 C 190.105469 185.234375 190.558594 185.378906 190.894531 185.039062 C 191.28125 184.652344 191.289062 183.949219 191.257812 183.445312 "/>
<path style=" stroke:none;fill-rule:nonzero;fill:rgb(8.628845%,11.369324%,22.749329%);fill-opacity:1;" d="M 197.621094 183.445312 C 197.644531 183.066406 197.675781 182.390625 198.128906 182.214844 C 198.949219 181.902344 199.933594 181.800781 200.746094 182.015625 C 201.726562 182.273438 202.679688 182.621094 203.59375 183.046875 C 204.132812 183.300781 204.675781 183.585938 205.175781 183.90625 C 205.59375 184.175781 206.070312 184.546875 206.035156 185.101562 C 206.019531 185.375 205.964844 185.851562 205.605469 185.84375 C 205.320312 185.832031 205.066406 185.617188 204.816406 185.507812 C 204.226562 185.25 203.589844 185.066406 202.957031 184.9375 C 202.304688 184.800781 201.6875 184.734375 201.019531 184.777344 C 200.390625 184.820312 199.789062 184.976562 199.175781 185.128906 C 198.769531 185.234375 198.320312 185.378906 197.980469 185.039062 C 197.59375 184.652344 197.589844 183.949219 197.621094 183.445312 "/>
<path style=" stroke:none;fill-rule:nonzero;fill:rgb(8.628845%,11.369324%,22.749329%);fill-opacity:1;" d="M 204.574219 189.996094 L 204.765625 189.941406 C 204.929688 189.832031 204.980469 189.609375 204.871094 189.445312 C 202.824219 186.230469 199.339844 187.898438 199.304688 187.914062 C 199.125 188 199.054688 188.214844 199.136719 188.390625 C 199.226562 188.566406 199.4375 188.644531 199.617188 188.554688 C 199.734375 188.5 202.570312 187.160156 204.273438 189.828125 C 204.339844 189.9375 204.457031 189.996094 204.574219 189.996094 "/>
<path style=" stroke:none;fill-rule:nonzero;fill:rgb(8.628845%,11.369324%,22.749329%);fill-opacity:1;" d="M 184.308594 189.996094 C 184.421875 189.996094 184.539062 189.9375 184.605469 189.828125 C 186.308594 187.160156 189.144531 188.496094 189.261719 188.554688 C 189.441406 188.644531 189.652344 188.566406 189.738281 188.390625 C 189.828125 188.214844 189.753906 188 189.578125 187.914062 C 189.542969 187.898438 186.058594 186.230469 184.007812 189.445312 C 183.902344 189.609375 183.949219 189.832031 184.117188 189.941406 L 184.308594 189.996094 "/>
<path style=" stroke:none;fill-rule:nonzero;fill:rgb(8.628845%,11.369324%,22.749329%);fill-opacity:1;" d="M 187.761719 197.496094 C 187.902344 197.550781 187.996094 197.6875 187.992188 197.84375 C 187.929688 199.078125 188.96875 199.691406 189.175781 199.796875 C 189.953125 200.210938 191.050781 200.261719 191.652344 199.578125 C 191.785156 199.429688 192.007812 199.417969 192.15625 199.550781 C 192.304688 199.679688 192.316406 199.902344 192.1875 200.054688 C 191.300781 201.058594 189.832031 200.949219 188.84375 200.429688 C 188.042969 200.011719 187.214844 199.097656 187.277344 197.8125 C 187.289062 197.613281 187.453125 197.460938 187.652344 197.472656 L 187.761719 197.496094 "/>
<path style=" stroke:none;fill-rule:nonzero;fill:rgb(94.898987%,51.368713%,48.239136%);fill-opacity:1;" d="M 198.890625 195.03125 C 198.890625 196.1875 200.472656 197.125 202.421875 197.125 C 204.367188 197.125 205.949219 196.1875 205.949219 195.03125 C 205.949219 193.875 204.367188 192.933594 202.421875 192.933594 C 200.472656 192.933594 198.890625 193.875 198.890625 195.03125 "/>
<path style=" stroke:none;fill-rule:nonzero;fill:rgb(94.898987%,51.368713%,48.239136%);fill-opacity:1;" d="M 182.214844 195.03125 C 182.214844 196.1875 183.789062 197.125 185.738281 197.125 C 187.6875 197.125 189.265625 196.1875 189.265625 195.03125 C 189.265625 193.875 187.6875 192.933594 185.738281 192.933594 C 183.789062 192.933594 182.214844 193.875 182.214844 195.03125 "/>
<path style=" stroke:none;fill-rule:nonzero;fill:rgb(8.628845%,11.369324%,22.749329%);fill-opacity:1;" d="M 207.351562 186.265625 C 207.351562 186.265625 204.234375 182.707031 202.648438 179.710938 C 201.039062 176.671875 199.464844 172.832031 200.5625 167.867188 C 200.5625 167.867188 202.394531 167.46875 205.246094 170.609375 C 208.097656 173.753906 209.882812 180.15625 207.351562 186.265625 "/>
<path style=" stroke:none;fill-rule:nonzero;fill:rgb(8.628845%,11.369324%,22.749329%);fill-opacity:1;" d="M 201.492188 174.597656 C 201.492188 174.597656 192.910156 184.84375 183.101562 185.941406 C 173.292969 187.035156 173.15625 193.421875 173.15625 193.421875 C 173.15625 193.421875 169.230469 180.304688 175.144531 171.386719 C 181.914062 161.167969 200.945312 162.460938 202.648438 165.96875 L 201.492188 174.597656 "/>
<path style=" stroke:none;fill-rule:nonzero;fill:rgb(93.728638%,40.388489%,39.219666%);fill-opacity:1;" d="M 172.046875 186.308594 C 169.589844 186.683594 168.03125 189.175781 169.570312 192.679688 C 170.871094 195.640625 171.167969 198.421875 173.628906 198.042969 C 176.082031 197.667969 177.71875 194.734375 177.28125 191.492188 C 176.847656 188.25 174.503906 185.929688 172.046875 186.308594 "/>
<path style=" stroke:none;fill-rule:nonzero;fill:rgb(94.898987%,94.898987%,94.898987%);fill-opacity:1;" d="M 172.65625 197.558594 C 172.65625 198.152344 172.171875 198.636719 171.578125 198.636719 C 170.984375 198.636719 170.5 198.152344 170.5 197.558594 C 170.5 196.960938 170.984375 196.472656 171.578125 196.472656 C 172.171875 196.472656 172.65625 196.960938 172.65625 197.558594 "/>
<path style=" stroke:none;fill-rule:nonzero;fill:rgb(69.40918%,14.509583%,59.999084%);fill-opacity:1;" d="M 193.425781 217.042969 C 186.984375 218.277344 178.285156 215.289062 177.417969 215.207031 C 176.953125 215.167969 177.101562 217.015625 177.4375 217.253906 C 178.414062 217.945312 187.503906 220.824219 193.320312 219.382812 C 193.96875 219.222656 194.054688 216.925781 193.425781 217.042969 "/>
<path style=" stroke:none;fill-rule:nonzero;fill:rgb(100%,100%,100%);fill-opacity:1;" d="M 125.308594 146.757812 C 123.253906 146.757812 121.582031 145.085938 121.582031 143.027344 C 121.582031 140.960938 123.253906 139.289062 125.308594 139.289062 C 127.367188 139.289062 129.03125 140.960938 129.03125 143.027344 C 129.03125 145.085938 127.367188 146.757812 125.308594 146.757812 Z M 110.667969 146.757812 C 108.609375 146.757812 106.941406 145.085938 106.941406 143.027344 C 106.941406 140.960938 108.609375 139.289062 110.667969 139.289062 C 112.722656 139.289062 114.390625 140.960938 114.390625 143.027344 C 114.390625 145.085938 112.722656 146.757812 110.667969 146.757812 Z M 96.027344 146.757812 C 93.96875 146.757812 92.300781 145.085938 92.300781 143.027344 C 92.300781 140.960938 93.96875 139.289062 96.027344 139.289062 C 98.082031 139.289062 99.75 140.960938 99.75 143.027344 C 99.75 145.085938 98.082031 146.757812 96.027344 146.757812 Z M 282.535156 133.164062 L 92.488281 133.164062 C 86.191406 133.164062 81.085938 138.285156 81.085938 144.597656 L 81.085938 152.882812 L 293.9375 152.882812 L 293.9375 144.597656 C 293.9375 138.285156 288.832031 133.164062 282.535156 133.164062 "/>
<path style=" stroke:none;fill-rule:nonzero;fill:rgb(100%,100%,100%);fill-opacity:1;" d="M 237.066406 246.738281 L 235.3125 247.792969 L 235.3125 246.089844 C 235.3125 244.824219 234.285156 243.792969 233.027344 243.792969 L 224.378906 243.792969 C 223.121094 243.792969 222.089844 244.824219 222.089844 246.089844 L 222.089844 253.035156 C 222.089844 254.296875 223.121094 255.332031 224.378906 255.332031 L 233.027344 255.332031 C 234.285156 255.332031 235.3125 254.296875 235.3125 253.035156 L 235.3125 251.335938 L 237.066406 252.386719 C 238.007812 253.226562 238.773438 252.882812 238.773438 251.617188 L 238.773438 247.503906 C 238.773438 246.242188 238.007812 245.898438 237.066406 246.738281 "/>
<path style=" stroke:none;fill-rule:nonzero;fill:rgb(100%,100%,100%);fill-opacity:1;" d="M 230.429688 238.023438 C 224.089844 238.023438 218.925781 243.199219 218.925781 249.558594 C 218.925781 255.925781 224.089844 261.101562 230.429688 261.101562 C 236.777344 261.101562 241.941406 255.925781 241.941406 249.558594 C 241.941406 243.199219 236.777344 238.023438 230.429688 238.023438 Z M 230.429688 261.910156 C 223.644531 261.910156 218.117188 256.371094 218.117188 249.558594 C 218.117188 242.753906 223.644531 237.214844 230.429688 237.214844 C 237.222656 237.214844 242.746094 242.753906 242.746094 249.558594 C 242.746094 256.371094 237.222656 261.910156 230.429688 261.910156 "/>
<path style=" stroke:none;fill-rule:nonzero;fill:rgb(100%,100%,100%);fill-opacity:1;" d="M 269.664062 253.101562 C 271.433594 253.101562 272.867188 251.667969 272.867188 249.894531 L 272.867188 244.136719 C 272.867188 242.363281 271.433594 240.925781 269.664062 240.925781 C 267.898438 240.925781 266.460938 242.363281 266.460938 244.136719 L 266.460938 249.894531 C 266.460938 251.667969 267.898438 253.101562 269.664062 253.101562 "/>
<path style=" stroke:none;fill-rule:nonzero;fill:rgb(100%,100%,100%);fill-opacity:1;" d="M 273.859375 247.113281 C 273.675781 247.113281 273.527344 247.261719 273.527344 247.445312 L 273.527344 250.398438 C 273.527344 252.535156 271.792969 254.269531 269.664062 254.269531 C 267.535156 254.269531 265.804688 252.535156 265.804688 250.398438 L 265.804688 247.445312 C 265.804688 247.261719 265.65625 247.113281 265.46875 247.113281 C 265.292969 247.113281 265.140625 247.261719 265.140625 247.445312 L 265.140625 250.398438 C 265.140625 252.789062 266.996094 254.726562 269.332031 254.902344 L 269.332031 257.867188 C 269.332031 258.050781 269.484375 258.199219 269.664062 258.199219 C 269.847656 258.199219 269.996094 258.050781 269.996094 257.867188 L 269.996094 254.902344 C 272.335938 254.726562 274.191406 252.789062 274.191406 250.398438 L 274.191406 247.445312 C 274.191406 247.261719 274.042969 247.113281 273.859375 247.113281 "/>
<path style=" stroke:none;fill-rule:nonzero;fill:rgb(100%,100%,100%);fill-opacity:1;" d="M 269.664062 238.023438 C 263.320312 238.023438 258.15625 243.199219 258.15625 249.558594 C 258.15625 255.925781 263.320312 261.101562 269.664062 261.101562 C 276.011719 261.101562 281.171875 255.925781 281.171875 249.558594 C 281.171875 243.199219 276.011719 238.023438 269.664062 238.023438 Z M 269.664062 261.910156 C 262.875 261.910156 257.347656 256.371094 257.347656 249.558594 C 257.347656 242.753906 262.875 237.214844 269.664062 237.214844 C 276.457031 237.214844 281.984375 242.753906 281.984375 249.558594 C 281.984375 256.371094 276.457031 261.910156 269.664062 261.910156 "/>
<path style=" stroke:none;fill-rule:nonzero;fill:rgb(100%,100%,100%);fill-opacity:1;" d="M 92.488281 133.835938 C 86.574219 133.835938 81.757812 138.664062 81.757812 144.597656 L 81.757812 263.347656 C 81.757812 269.28125 86.574219 274.109375 92.488281 274.109375 L 282.535156 274.109375 C 288.453125 274.109375 293.265625 269.28125 293.265625 263.347656 L 293.265625 144.597656 C 293.265625 138.664062 288.453125 133.835938 282.535156 133.835938 Z M 282.535156 275.453125 L 92.488281 275.453125 C 85.832031 275.453125 80.417969 270.023438 80.417969 263.347656 L 80.417969 144.597656 C 80.417969 137.921875 85.832031 132.492188 92.488281 132.492188 L 282.535156 132.492188 C 289.191406 132.492188 294.609375 137.921875 294.609375 144.597656 L 294.609375 263.347656 C 294.609375 270.023438 289.191406 275.453125 282.535156 275.453125 "/>
<g clip-path="url(#clip1)" clip-rule="nonzero">
<path style=" stroke:none;fill-rule:nonzero;fill:rgb(82.749939%,82.348633%,82.348633%);fill-opacity:1;" d="M 237.898438 283.199219 L 228.910156 290.855469 L 146.117188 290.855469 L 137.128906 283.199219 L 26.730469 283.199219 L 26.730469 291.820312 C 26.730469 305.304688 37.632812 316.238281 51.085938 316.238281 L 323.945312 316.238281 C 337.394531 316.238281 348.296875 305.304688 348.296875 291.820312 L 348.296875 283.199219 L 237.898438 283.199219 "/>
</g>
<path style=" stroke:none;fill-rule:nonzero;fill:rgb(71.759033%,71.759033%,71.759033%);fill-opacity:1;" d="M 190.996094 107.957031 C 190.996094 109.886719 189.4375 111.449219 187.511719 111.449219 C 185.589844 111.449219 184.027344 109.886719 184.027344 107.957031 C 184.027344 106.027344 185.589844 104.464844 187.511719 104.464844 C 189.4375 104.464844 190.996094 106.027344 190.996094 107.957031 "/>
<g clip-path="url(#clip2)" clip-rule="nonzero">
<path style=" stroke:none;fill-rule:nonzero;fill:rgb(95.689392%,43.919373%,57.649231%);fill-opacity:1;" d="M 58.488281 59.421875 L 58.488281 133.824219 L 170.464844 133.824219 L 170.464844 59.421875 L 58.488281 59.421875 "/>
</g>
<path style=" stroke:none;fill-rule:nonzero;fill:rgb(95.289612%,38.038635%,45.098877%);fill-opacity:1;" d="M 156.777344 116.199219 C 156.777344 122.5 155.414062 128.46875 152.953125 133.847656 L 75.996094 133.847656 C 73.535156 128.46875 72.171875 122.5 72.171875 116.199219 C 72.171875 92.777344 91.109375 73.792969 114.476562 73.792969 C 137.839844 73.792969 156.777344 92.777344 156.777344 116.199219 "/>
<path style=" stroke:none;fill-rule:nonzero;fill:rgb(8.628845%,11.369324%,22.749329%);fill-opacity:1;" d="M 115.558594 68.007812 C 110.691406 67.335938 104.179688 69.953125 102.605469 74.507812 C 101.65625 77.261719 99.953125 79.210938 98.320312 81.582031 C 96.855469 83.714844 96.933594 85.480469 96.605469 87.886719 C 96.292969 90.21875 94.75 92.125 94.050781 94.339844 C 93.242188 96.902344 93.472656 99.648438 93.375 102.300781 C 93.15625 107.996094 94.402344 113.15625 99.148438 116.988281 C 105.203125 121.886719 115.03125 123.261719 122.511719 121.355469 C 125.378906 120.625 129.660156 119.898438 131.808594 117.734375 C 133.414062 116.121094 131.917969 114.496094 132.265625 112.613281 C 132.675781 110.402344 134.875 109.03125 134.503906 106.59375 C 134.113281 103.976562 131.683594 102.070312 131.914062 99.285156 C 132.089844 97.175781 133.8125 95.476562 132.648438 93.371094 C 131.6875 91.632812 129.609375 90.558594 129.835938 88.347656 C 130.027344 86.523438 130.789062 85.871094 129.335938 84.300781 C 127.769531 82.613281 126.53125 81.445312 126.179688 79.09375 C 125.449219 74.238281 122.6875 68.996094 115.558594 68.007812 "/>
<path style=" stroke:none;fill-rule:nonzero;fill:rgb(94.898987%,94.898987%,94.898987%);fill-opacity:1;" d="M 140.933594 133.847656 C 141.75 129.71875 141.214844 125.042969 140.53125 121.445312 C 139.058594 113.652344 133.464844 106.964844 127.230469 104.84375 L 124.640625 133.847656 Z M 88.4375 133.847656 C 87.054688 129.355469 87.640625 123.855469 88.417969 119.753906 C 89.890625 111.960938 95.488281 105.273438 101.71875 103.152344 L 104.371094 132.828125 C 104.234375 133.15625 104.085938 133.496094 103.9375 133.847656 L 88.4375 133.847656 "/>
<path style=" stroke:none;fill-rule:nonzero;fill:rgb(10.198975%,19.219971%,34.118652%);fill-opacity:1;" d="M 93.300781 133.847656 L 98.011719 133.847656 C 97.339844 130.910156 97.496094 127.902344 96.390625 125.007812 C 96.050781 124.121094 95.570312 123.300781 95.039062 122.449219 C 94.835938 122.125 94.390625 121.648438 94.191406 121.226562 C 92.648438 123.179688 92.5625 125.707031 92.480469 127.789062 C 92.402344 129.820312 92.597656 131.859375 93.300781 133.847656 "/>
<path style=" stroke:none;fill-rule:nonzero;fill:rgb(10.198975%,19.219971%,34.118652%);fill-opacity:1;" d="M 134.300781 124.214844 C 133.953125 123.503906 133.464844 122.347656 132.230469 121.964844 C 131.417969 125.945312 129.878906 129.867188 129.082031 133.847656 L 135.113281 133.847656 C 135.402344 131.460938 135.757812 129.0625 135.15625 126.683594 C 134.949219 125.855469 134.699219 125.023438 134.300781 124.214844 "/>
<path style=" stroke:none;fill-rule:nonzero;fill:rgb(94.509888%,29.019165%,67.83905%);fill-opacity:1;" d="M 125.558594 104.429688 C 124.324219 104.222656 122.976562 104.183594 121.515625 104.28125 C 115.789062 104.648438 110.550781 102.871094 104.914062 102.710938 C 104.226562 102.691406 103.582031 102.742188 102.964844 102.847656 L 102.964844 133.847656 L 125.558594 133.847656 L 125.558594 104.429688 "/>
<path style=" stroke:none;fill-rule:nonzero;fill:rgb(94.898987%,94.898987%,94.898987%);fill-opacity:1;" d="M 105.097656 121.4375 C 105.058594 115.199219 105.710938 108.980469 105.804688 102.753906 C 105.507812 102.734375 105.210938 102.71875 104.914062 102.710938 C 98.371094 102.527344 95.003906 108.308594 94.203125 115.285156 C 93.675781 119.914062 94.195312 127.351562 95.214844 133.847656 L 106.148438 133.847656 C 105.230469 129.792969 105.121094 125.53125 105.097656 121.4375 "/>
<path style=" stroke:none;fill-rule:nonzero;fill:rgb(94.898987%,94.898987%,94.898987%);fill-opacity:1;" d="M 133.359375 113.066406 C 131.882812 106.355469 128.285156 104.253906 123.082031 104.230469 C 123.125 114.175781 122.136719 124.3125 119.15625 133.847656 L 133.054688 133.847656 C 134.230469 126.6875 134.484375 118.171875 133.359375 113.066406 "/>
<path style=" stroke:none;fill-rule:nonzero;fill:rgb(93.728638%,40.388489%,39.219666%);fill-opacity:1;" d="M 120.652344 101.273438 L 119.140625 93.339844 L 110.222656 93.339844 L 108.703125 101.273438 L 120.652344 101.273438 "/>
<path style=" stroke:none;fill-rule:nonzero;fill:rgb(94.509888%,29.019165%,67.83905%);fill-opacity:1;" d="M 120.390625 99.910156 C 118.472656 100.527344 116.394531 100.683594 114.402344 100.515625 C 112.683594 100.375 110.644531 100.195312 109.082031 99.300781 L 107.988281 105.035156 C 107.988281 106.929688 106.765625 112.277344 114.675781 112.277344 C 122.59375 112.277344 121.371094 106.929688 121.371094 105.035156 L 120.390625 99.910156 "/>
<path style=" stroke:none;fill-rule:nonzero;fill:rgb(10.198975%,19.219971%,34.118652%);fill-opacity:1;" d="M 109.460938 97.308594 C 111.929688 99.6875 116.480469 100.453125 120.316406 99.519531 L 119.140625 93.339844 L 110.222656 93.339844 L 109.460938 97.308594 "/>
<path style=" stroke:none;fill-rule:nonzero;fill:rgb(93.328857%,9.799194%,59.21936%);fill-opacity:1;" d="M 108.722656 101.058594 C 109.304688 101.75 112.851562 102.625 114.765625 102.640625 C 117.449219 102.660156 119.78125 101.960938 120.652344 101.449219 C 120.953125 101.273438 120.785156 99.90625 120.390625 99.910156 C 119.65625 99.910156 115.964844 100.492188 114.933594 100.492188 C 113.429688 100.496094 110.539062 99.625 109.082031 99.300781 C 108.554688 99.179688 108.359375 100.625 108.722656 101.058594 "/>
<path style=" stroke:none;fill-rule:nonzero;fill:rgb(93.728638%,40.388489%,39.219666%);fill-opacity:1;" d="M 104.203125 83.324219 C 102.765625 83.546875 101.851562 85.007812 102.753906 87.058594 C 103.515625 88.792969 103.691406 90.421875 105.128906 90.203125 C 106.566406 89.980469 107.527344 88.261719 107.269531 86.363281 C 107.015625 84.464844 105.644531 83.105469 104.203125 83.324219 "/>
<path style=" stroke:none;fill-rule:nonzero;fill:rgb(93.728638%,40.388489%,39.219666%);fill-opacity:1;" d="M 125.15625 83.324219 C 123.71875 83.105469 122.34375 84.464844 122.085938 86.363281 C 121.828125 88.261719 122.789062 89.980469 124.226562 90.203125 C 125.667969 90.421875 125.839844 88.792969 126.605469 87.058594 C 127.507812 85.007812 126.589844 83.546875 125.15625 83.324219 "/>
<path style=" stroke:none;fill-rule:nonzero;fill:rgb(93.728638%,40.388489%,39.219666%);fill-opacity:1;" d="M 104.84375 79.34375 C 104.605469 80.210938 104.472656 81.128906 104.472656 82.074219 L 104.472656 88.492188 C 104.472656 94.140625 109.042969 98.722656 114.675781 98.722656 C 120.316406 98.722656 124.882812 94.140625 124.882812 88.492188 L 124.882812 82.074219 C 124.882812 81.128906 124.75 80.210938 124.515625 79.34375 C 124.515625 79.34375 121.503906 67.210938 108.988281 72.652344 C 106.867188 73.574219 104.84375 79.34375 104.84375 79.34375 "/>
<path style=" stroke:none;fill-rule:nonzero;fill:rgb(94.898987%,94.898987%,94.898987%);fill-opacity:1;" d="M 126.070312 89.917969 C 126.070312 90.265625 125.785156 90.546875 125.4375 90.546875 C 125.089844 90.546875 124.808594 90.265625 124.808594 89.917969 C 124.808594 89.566406 125.089844 89.285156 125.4375 89.285156 C 125.785156 89.285156 126.070312 89.566406 126.070312 89.917969 "/>
<path style=" stroke:none;fill-rule:nonzero;fill:rgb(94.898987%,94.898987%,94.898987%);fill-opacity:1;" d="M 104.5625 89.917969 C 104.5625 90.265625 104.277344 90.546875 103.929688 90.546875 C 103.582031 90.546875 103.296875 90.265625 103.296875 89.917969 C 103.296875 89.566406 103.582031 89.285156 103.929688 89.285156 C 104.277344 89.285156 104.5625 89.566406 104.5625 89.917969 "/>
<path style=" stroke:none;fill-rule:nonzero;fill:rgb(8.628845%,11.369324%,22.749329%);fill-opacity:1;" d="M 104.472656 83.300781 C 104.472656 83.300781 106.054688 81.21875 106.984375 79.460938 C 107.921875 77.683594 108.847656 75.433594 108.203125 72.523438 C 108.203125 72.523438 107.132812 72.289062 105.464844 74.128906 C 103.796875 75.972656 102.988281 79.726562 104.472656 83.300781 "/>
<path style=" stroke:none;fill-rule:nonzero;fill:rgb(8.628845%,11.369324%,22.749329%);fill-opacity:1;" d="M 107.660156 76.46875 C 107.660156 76.46875 112.6875 82.472656 118.433594 83.113281 C 124.179688 83.75 125.125 85.6875 125.125 85.6875 C 125.125 85.6875 126.558594 79.8125 123.097656 74.585938 C 119.132812 68.601562 107.984375 69.359375 106.984375 71.410156 L 107.660156 76.46875 "/>
<path style=" stroke:none;fill-rule:nonzero;fill:rgb(8.628845%,11.369324%,22.749329%);fill-opacity:1;" d="M 70.824219 123.585938 L 70.023438 124.070312 L 70.023438 123.292969 C 70.023438 122.71875 69.554688 122.242188 68.980469 122.242188 L 65.027344 122.242188 C 64.453125 122.242188 63.980469 122.71875 63.980469 123.292969 L 63.980469 126.46875 C 63.980469 127.042969 64.453125 127.515625 65.027344 127.515625 L 68.980469 127.515625 C 69.554688 127.515625 70.023438 127.042969 70.023438 126.46875 L 70.023438 125.691406 L 70.824219 126.171875 C 71.253906 126.554688 71.609375 126.398438 71.609375 125.820312 L 71.609375 123.941406 C 71.609375 123.363281 71.253906 123.207031 70.824219 123.585938 "/>
<path style=" stroke:none;fill-rule:nonzero;fill:rgb(8.628845%,11.369324%,22.749329%);fill-opacity:1;" d="M 67.792969 119.605469 C 64.894531 119.605469 62.535156 121.972656 62.535156 124.878906 C 62.535156 127.789062 64.894531 130.152344 67.792969 130.152344 C 70.695312 130.152344 73.054688 127.789062 73.054688 124.878906 C 73.054688 121.972656 70.695312 119.605469 67.792969 119.605469 Z M 67.792969 130.523438 C 64.691406 130.523438 62.164062 127.992188 62.164062 124.878906 C 62.164062 121.769531 64.691406 119.238281 67.792969 119.238281 C 70.898438 119.238281 73.421875 121.769531 73.421875 124.878906 C 73.421875 127.992188 70.898438 130.523438 67.792969 130.523438 "/>
<path style=" stroke:none;fill-rule:nonzero;fill:rgb(8.628845%,11.369324%,22.749329%);fill-opacity:1;" d="M 85.726562 126.5 C 86.53125 126.5 87.1875 125.84375 87.1875 125.03125 L 87.1875 122.402344 C 87.1875 121.589844 86.53125 120.933594 85.726562 120.933594 C 84.917969 120.933594 84.261719 121.589844 84.261719 122.402344 L 84.261719 125.03125 C 84.261719 125.84375 84.917969 126.5 85.726562 126.5 "/>
<path style=" stroke:none;fill-rule:nonzero;fill:rgb(8.628845%,11.369324%,22.749329%);fill-opacity:1;" d="M 87.640625 123.761719 L 87.492188 123.914062 L 87.492188 125.261719 C 87.492188 126.238281 86.695312 127.03125 85.726562 127.03125 C 84.753906 127.03125 83.960938 126.238281 83.960938 125.261719 L 83.960938 123.914062 L 83.808594 123.761719 L 83.65625 123.914062 L 83.65625 125.261719 C 83.65625 126.355469 84.507812 127.242188 85.574219 127.320312 L 85.574219 128.675781 L 85.726562 128.828125 L 85.875 128.675781 L 85.875 127.320312 C 86.945312 127.242188 87.792969 126.355469 87.792969 125.261719 L 87.792969 123.914062 L 87.640625 123.761719 "/>
<path style=" stroke:none;fill-rule:nonzero;fill:rgb(8.628845%,11.369324%,22.749329%);fill-opacity:1;" d="M 85.726562 119.605469 C 82.824219 119.605469 80.464844 121.972656 80.464844 124.878906 C 80.464844 127.789062 82.824219 130.152344 85.726562 130.152344 C 88.625 130.152344 90.984375 127.789062 90.984375 124.878906 C 90.984375 121.972656 88.625 119.605469 85.726562 119.605469 Z M 85.726562 130.523438 C 82.621094 130.523438 80.097656 127.992188 80.097656 124.878906 C 80.097656 121.769531 82.621094 119.238281 85.726562 119.238281 C 88.828125 119.238281 91.351562 121.769531 91.351562 124.878906 C 91.351562 127.992188 88.828125 130.523438 85.726562 130.523438 "/>
<g clip-path="url(#clip3)" clip-rule="nonzero">
<path style=" stroke:none;fill-rule:nonzero;fill:rgb(100%,100%,100%);fill-opacity:1;" d="M 77.253906 64.910156 C 76.3125 64.910156 75.546875 64.144531 75.546875 63.203125 C 75.546875 62.257812 76.3125 61.496094 77.253906 61.496094 C 78.191406 61.496094 78.953125 62.257812 78.953125 63.203125 C 78.953125 64.144531 78.191406 64.910156 77.253906 64.910156 Z M 70.558594 64.910156 C 69.617188 64.910156 68.859375 64.144531 68.859375 63.203125 C 68.859375 62.257812 69.617188 61.496094 70.558594 61.496094 C 71.5 61.496094 72.261719 62.257812 72.261719 63.203125 C 72.261719 64.144531 71.5 64.910156 70.558594 64.910156 Z M 63.867188 64.910156 C 62.929688 64.910156 62.167969 64.144531 62.167969 63.203125 C 62.167969 62.257812 62.929688 61.496094 63.867188 61.496094 C 64.808594 61.496094 65.570312 62.257812 65.570312 63.203125 C 65.570312 64.144531 64.808594 64.910156 63.867188 64.910156 Z M 74.992188 59.421875 L 58.488281 59.421875 L 58.488281 66.984375 L 170.464844 66.984375 L 170.464844 59.421875 L 74.992188 59.421875 "/>
</g>
<g clip-path="url(#clip4)" clip-rule="nonzero">
<path style=" stroke:none;fill-rule:nonzero;fill:rgb(29.40979%,43.139648%,74.508667%);fill-opacity:1;" d="M 204.5625 59.421875 L 204.5625 133.828125 L 316.539062 133.828125 L 316.539062 59.421875 L 204.5625 59.421875 "/>
</g>
<path style=" stroke:none;fill-rule:nonzero;fill:rgb(33.729553%,47.44873%,77.249146%);fill-opacity:1;" d="M 302.855469 116.199219 C 302.855469 122.5 301.492188 128.46875 299.03125 133.847656 L 222.070312 133.847656 C 219.609375 128.46875 218.25 122.5 218.25 116.199219 C 218.25 92.777344 237.183594 73.792969 260.550781 73.792969 C 283.914062 73.792969 302.855469 92.777344 302.855469 116.199219 "/>
<path style=" stroke:none;fill-rule:nonzero;fill:rgb(30.979919%,76.858521%,76.469421%);fill-opacity:1;" d="M 287.980469 133.847656 C 288.824219 129.871094 288.273438 125.371094 287.5625 121.90625 C 286.039062 114.398438 280.238281 107.957031 273.777344 105.917969 L 271.089844 133.847656 Z M 233.554688 133.847656 C 232.125 129.519531 232.734375 124.226562 233.539062 120.277344 C 235.066406 112.773438 240.867188 106.332031 247.328125 104.289062 L 250.078125 132.867188 C 249.933594 133.179688 249.78125 133.507812 249.625 133.847656 L 233.554688 133.847656 "/>
<path style=" stroke:none;fill-rule:nonzero;fill:rgb(10.198975%,19.219971%,34.118652%);fill-opacity:1;" d="M 238.601562 133.847656 L 243.484375 133.847656 C 242.789062 131.496094 242.949219 129.089844 241.800781 126.773438 C 241.449219 126.0625 240.957031 125.40625 240.40625 124.726562 C 240.195312 124.464844 239.730469 124.082031 239.523438 123.746094 C 237.925781 125.308594 237.835938 127.332031 237.753906 129 C 237.667969 130.625 237.867188 132.257812 238.601562 133.847656 "/>
<path style=" stroke:none;fill-rule:nonzero;fill:rgb(10.198975%,19.219971%,34.118652%);fill-opacity:1;" d="M 281.109375 126.140625 C 280.742188 125.566406 280.238281 124.644531 278.960938 124.335938 C 278.117188 127.523438 276.519531 130.660156 275.699219 133.847656 L 281.945312 133.847656 C 282.242188 131.933594 282.617188 130.019531 281.992188 128.113281 C 281.777344 127.453125 281.515625 126.785156 281.109375 126.140625 "/>
<path style=" stroke:none;fill-rule:nonzero;fill:rgb(30.979919%,76.858521%,76.469421%);fill-opacity:1;" d="M 279.8125 133.847656 C 281.027344 126.953125 281.292969 118.75 280.128906 113.832031 C 278.445312 106.742188 274.125 104.996094 267.851562 105.375 C 261.914062 105.730469 256.484375 104.015625 250.640625 103.863281 C 243.859375 103.683594 240.367188 109.253906 239.539062 115.972656 C 238.984375 120.425781 239.523438 127.59375 240.585938 133.847656 L 279.8125 133.847656 "/>
<path style=" stroke:none;fill-rule:nonzero;fill:rgb(93.728638%,40.388489%,39.219666%);fill-opacity:1;" d="M 255.351562 93.800781 L 253.121094 105.488281 C 253.121094 107.390625 251.898438 111.210938 259.8125 111.210938 C 267.726562 111.210938 266.5 107.390625 266.5 105.488281 L 264.273438 93.800781 L 255.351562 93.800781 "/>
<path style=" stroke:none;fill-rule:nonzero;fill:rgb(10.198975%,19.219971%,34.118652%);fill-opacity:1;" d="M 254.59375 97.769531 C 257.0625 100.144531 261.613281 100.914062 265.449219 99.976562 L 264.273438 93.800781 L 255.351562 93.800781 L 254.59375 97.769531 "/>
<path style=" stroke:none;fill-rule:nonzero;fill:rgb(93.728638%,40.388489%,39.219666%);fill-opacity:1;" d="M 249.335938 83.785156 C 247.898438 84.003906 246.988281 85.46875 247.882812 87.515625 C 248.652344 89.253906 248.820312 90.882812 250.261719 90.660156 C 251.703125 90.441406 252.660156 88.722656 252.402344 86.820312 C 252.148438 84.921875 250.773438 83.5625 249.335938 83.785156 "/>
<path style=" stroke:none;fill-rule:nonzero;fill:rgb(93.728638%,40.388489%,39.219666%);fill-opacity:1;" d="M 270.285156 83.785156 C 268.847656 83.5625 267.476562 84.921875 267.21875 86.820312 C 266.964844 88.722656 267.921875 90.441406 269.363281 90.660156 C 270.796875 90.882812 270.976562 89.253906 271.734375 87.515625 C 272.640625 85.46875 271.726562 84.003906 270.285156 83.785156 "/>
<path style=" stroke:none;fill-rule:nonzero;fill:rgb(93.728638%,40.388489%,39.219666%);fill-opacity:1;" d="M 252.316406 75.492188 C 252.074219 76.363281 249.605469 81.589844 249.605469 82.535156 L 249.605469 88.949219 C 249.605469 94.597656 254.175781 99.179688 259.8125 99.179688 C 265.445312 99.179688 270.015625 94.597656 270.015625 88.949219 L 270.015625 82.535156 C 270.015625 81.589844 267.882812 75.546875 267.640625 74.675781 L 255.625 73.792969 L 252.316406 75.492188 "/>
<path style=" stroke:none;fill-rule:nonzero;fill:rgb(8.628845%,11.369324%,22.749329%);fill-opacity:1;" d="M 264.421875 78.144531 C 264.511719 78.625 264.773438 79.074219 265.125 79.398438 C 266.074219 80.273438 267.667969 79.902344 268.433594 80.804688 C 269.140625 81.652344 269.011719 83.007812 269.058594 84.039062 C 269.089844 84.605469 269.136719 85.09375 269.328125 85.632812 C 269.464844 86.023438 270.167969 86.847656 270.167969 87.191406 C 270.167969 86.695312 270.160156 86.066406 270.167969 85.523438 C 270.191406 84.242188 270.320312 82.929688 270.503906 81.660156 C 270.644531 80.722656 270.75 79.378906 270.558594 78.144531 L 264.421875 78.144531 "/>
<path style=" stroke:none;fill-rule:nonzero;fill:rgb(8.628845%,11.369324%,22.749329%);fill-opacity:1;" d="M 272.179688 76.792969 L 272.277344 76.609375 C 273.792969 73.421875 272.328125 66.902344 267.765625 67.785156 C 266.210938 68.085938 265.007812 69.1875 263.621094 69.871094 C 262.238281 70.546875 260.824219 70.550781 259.324219 70.476562 C 255.949219 70.304688 252.710938 70.449219 251.515625 74.136719 C 251.398438 74.488281 251.304688 74.847656 251.210938 75.207031 C 248.863281 76.066406 249.03125 79.726562 249.316406 81.660156 C 249.496094 82.929688 249.625 84.242188 249.648438 85.523438 C 249.660156 86.066406 249.648438 86.695312 249.648438 87.191406 C 249.648438 86.847656 250.351562 86.023438 250.492188 85.632812 C 250.683594 85.09375 250.730469 84.605469 250.757812 84.039062 C 250.808594 83.007812 250.675781 81.652344 251.386719 80.804688 C 252.152344 79.902344 253.746094 80.273438 254.695312 79.398438 C 255.152344 78.972656 255.46875 78.328125 255.429688 77.6875 C 256.679688 78.386719 257.949219 79.015625 259.414062 79 C 260.789062 78.980469 262.117188 78.492188 263.492188 78.441406 C 266.554688 78.335938 270.363281 80.292969 272.179688 76.792969 "/>
<path style=" stroke:none;fill-rule:nonzero;fill:rgb(8.628845%,11.369324%,22.749329%);fill-opacity:1;" d="M 216.71875 123.585938 L 215.917969 124.070312 L 215.917969 123.292969 C 215.917969 122.71875 215.445312 122.242188 214.871094 122.242188 L 210.921875 122.242188 C 210.34375 122.242188 209.871094 122.71875 209.871094 123.292969 L 209.871094 126.46875 C 209.871094 127.042969 210.34375 127.515625 210.921875 127.515625 L 214.871094 127.515625 C 215.445312 127.515625 215.917969 127.042969 215.917969 126.46875 L 215.917969 125.691406 L 216.71875 126.171875 C 217.148438 126.554688 217.5 126.398438 217.5 125.820312 L 217.5 123.941406 C 217.5 123.363281 217.148438 123.207031 216.71875 123.585938 "/>
<path style=" stroke:none;fill-rule:nonzero;fill:rgb(8.628845%,11.369324%,22.749329%);fill-opacity:1;" d="M 213.6875 119.605469 C 210.785156 119.605469 208.425781 121.972656 208.425781 124.878906 C 208.425781 127.789062 210.785156 130.152344 213.6875 130.152344 C 216.585938 130.152344 218.945312 127.789062 218.945312 124.878906 C 218.945312 121.972656 216.585938 119.605469 213.6875 119.605469 Z M 213.6875 130.523438 C 210.582031 130.523438 208.058594 127.992188 208.058594 124.878906 C 208.058594 121.769531 210.582031 119.238281 213.6875 119.238281 C 216.789062 119.238281 219.316406 121.769531 219.316406 124.878906 C 219.316406 127.992188 216.789062 130.523438 213.6875 130.523438 "/>
<path style=" stroke:none;fill-rule:nonzero;fill:rgb(8.628845%,11.369324%,22.749329%);fill-opacity:1;" d="M 231.617188 126.5 C 232.421875 126.5 233.082031 125.84375 233.082031 125.03125 L 233.082031 122.402344 C 233.082031 121.589844 232.421875 120.933594 231.617188 120.933594 C 230.808594 120.933594 230.152344 121.589844 230.152344 122.402344 L 230.152344 125.03125 C 230.152344 125.84375 230.808594 126.5 231.617188 126.5 "/>
<path style=" stroke:none;fill-rule:nonzero;fill:rgb(8.628845%,11.369324%,22.749329%);fill-opacity:1;" d="M 233.53125 123.761719 L 233.378906 123.914062 L 233.378906 125.261719 C 233.378906 126.238281 232.589844 127.03125 231.617188 127.03125 C 230.644531 127.03125 229.851562 126.238281 229.851562 125.261719 L 229.851562 123.914062 L 229.699219 123.761719 L 229.546875 123.914062 L 229.546875 125.261719 C 229.546875 126.355469 230.398438 127.242188 231.460938 127.320312 L 231.460938 128.675781 L 231.617188 128.828125 L 231.769531 128.675781 L 231.769531 127.320312 C 232.835938 127.242188 233.683594 126.355469 233.683594 125.261719 L 233.683594 123.914062 L 233.53125 123.761719 "/>
<path style=" stroke:none;fill-rule:nonzero;fill:rgb(8.628845%,11.369324%,22.749329%);fill-opacity:1;" d="M 231.617188 119.605469 C 228.714844 119.605469 226.355469 121.972656 226.355469 124.878906 C 226.355469 127.789062 228.714844 130.152344 231.617188 130.152344 C 234.515625 130.152344 236.875 127.789062 236.875 124.878906 C 236.875 121.972656 234.515625 119.605469 231.617188 119.605469 Z M 231.617188 130.523438 C 228.511719 130.523438 225.988281 127.992188 225.988281 124.878906 C 225.988281 121.769531 228.511719 119.238281 231.617188 119.238281 C 234.71875 119.238281 237.246094 121.769531 237.246094 124.878906 C 237.246094 127.992188 234.71875 130.523438 231.617188 130.523438 "/>
<g clip-path="url(#clip5)" clip-rule="nonzero">
<path style=" stroke:none;fill-rule:nonzero;fill:rgb(100%,100%,100%);fill-opacity:1;" d="M 223.144531 64.910156 C 222.199219 64.910156 221.4375 64.144531 221.4375 63.203125 C 221.4375 62.261719 222.199219 61.5 223.144531 61.5 C 224.082031 61.5 224.84375 62.261719 224.84375 63.203125 C 224.84375 64.144531 224.082031 64.910156 223.144531 64.910156 Z M 216.453125 64.910156 C 215.511719 64.910156 214.75 64.144531 214.75 63.203125 C 214.75 62.261719 215.511719 61.5 216.453125 61.5 C 217.390625 61.5 218.152344 62.261719 218.152344 63.203125 C 218.152344 64.144531 217.390625 64.910156 216.453125 64.910156 Z M 209.757812 64.910156 C 208.820312 64.910156 208.058594 64.144531 208.058594 63.203125 C 208.058594 62.261719 208.820312 61.5 209.757812 61.5 C 210.699219 61.5 211.460938 62.261719 211.460938 63.203125 C 211.460938 64.144531 210.699219 64.910156 209.757812 64.910156 Z M 220.882812 59.421875 L 204.378906 59.421875 L 204.378906 66.984375 L 316.355469 66.984375 L 316.355469 59.421875 L 220.882812 59.421875 "/>
</g>
<path style=" stroke:none;fill-rule:nonzero;fill:rgb(30.979919%,76.858521%,76.469421%);fill-opacity:1;" d="M 0.292969 163.507812 L 0.292969 237.910156 L 112.269531 237.910156 L 112.269531 163.507812 L 0.292969 163.507812 "/>
<path style=" stroke:none;fill-rule:nonzero;fill:rgb(44.709778%,81.568909%,79.998779%);fill-opacity:1;" d="M 97.132812 220.871094 C 97.132812 226.957031 95.816406 232.722656 93.441406 237.910156 L 19.121094 237.910156 C 16.746094 232.722656 15.433594 226.957031 15.433594 220.871094 C 15.433594 198.25 33.71875 179.917969 56.28125 179.917969 C 78.847656 179.917969 97.132812 198.25 97.132812 220.871094 "/>
<path style=" stroke:none;fill-rule:nonzero;fill:rgb(29.40979%,43.139648%,74.508667%);fill-opacity:1;" d="M 83.714844 237.910156 C 84.554688 233.9375 84.003906 229.433594 83.296875 225.96875 C 81.769531 218.464844 75.96875 212.023438 69.507812 209.984375 L 66.820312 237.910156 Z M 29.289062 237.910156 C 27.859375 233.585938 28.464844 228.289062 29.269531 224.339844 C 30.796875 216.835938 36.597656 210.394531 43.058594 208.355469 L 45.808594 236.929688 C 45.664062 237.246094 45.511719 237.574219 45.355469 237.910156 L 29.289062 237.910156 "/>
<path style=" stroke:none;fill-rule:nonzero;fill:rgb(10.198975%,19.219971%,34.118652%);fill-opacity:1;" d="M 34.332031 237.910156 L 39.214844 237.910156 C 38.519531 235.5625 38.679688 233.15625 37.53125 230.835938 C 37.179688 230.128906 36.6875 229.46875 36.132812 228.789062 C 35.925781 228.527344 35.460938 228.152344 35.253906 227.8125 C 33.652344 229.371094 33.566406 231.394531 33.484375 233.0625 C 33.402344 234.691406 33.601562 236.320312 34.332031 237.910156 "/>
<path style=" stroke:none;fill-rule:nonzero;fill:rgb(10.198975%,19.219971%,34.118652%);fill-opacity:1;" d="M 76.839844 230.203125 C 76.472656 229.632812 75.96875 228.707031 74.691406 228.402344 C 73.847656 231.585938 72.25 234.726562 71.425781 237.910156 L 77.675781 237.910156 C 77.972656 236 78.34375 234.085938 77.722656 232.179688 C 77.507812 231.519531 77.25 230.847656 76.839844 230.203125 "/>
<path style=" stroke:none;fill-rule:nonzero;fill:rgb(29.40979%,43.139648%,74.508667%);fill-opacity:1;" d="M 75.542969 237.910156 C 76.757812 231.015625 77.023438 222.816406 75.855469 217.898438 C 74.179688 210.808594 69.851562 209.0625 63.585938 209.4375 C 57.644531 209.792969 52.21875 208.082031 46.371094 207.929688 C 39.585938 207.75 36.097656 213.316406 35.265625 220.039062 C 34.71875 224.492188 35.257812 231.65625 36.3125 237.910156 L 75.542969 237.910156 "/>
<path style=" stroke:none;fill-rule:nonzero;fill:rgb(15.289307%,19.999695%,30.198669%);fill-opacity:1;" d="M 49.273438 216.824219 C 49.726562 217.554688 50.308594 218.214844 50.675781 218.996094 C 51.195312 220.101562 50.855469 220.941406 50.367188 221.960938 C 50.070312 222.589844 49.785156 223.246094 49.703125 223.941406 C 49.59375 224.835938 49.875 225.640625 50.066406 226.503906 C 50.304688 227.597656 50.003906 228.328125 49.4375 229.246094 C 49.027344 229.910156 48.703125 230.613281 48.617188 231.394531 C 48.46875 232.683594 49.132812 234.355469 49.9375 235.339844 C 50.128906 235.574219 50.585938 235.386719 50.554688 235.082031 C 50.472656 234.28125 49.984375 233.609375 49.71875 232.855469 C 49.394531 231.929688 49.507812 231.046875 49.953125 230.175781 C 50.308594 229.476562 50.832031 228.871094 51.011719 228.089844 C 51.203125 227.28125 50.988281 226.476562 50.78125 225.691406 C 50.511719 224.664062 50.523438 223.824219 50.917969 222.835938 C 51.199219 222.144531 51.511719 221.460938 51.59375 220.710938 C 51.769531 219.085938 50.570312 217.710938 49.457031 216.679688 C 49.363281 216.589844 49.199219 216.703125 49.273438 216.824219 "/>
<path style=" stroke:none;fill-rule:nonzero;fill:rgb(15.289307%,19.999695%,30.198669%);fill-opacity:1;" d="M 64.546875 216.679688 C 63.476562 217.675781 62.285156 219.019531 62.40625 220.585938 C 62.460938 221.308594 62.730469 221.980469 63.007812 222.640625 C 63.449219 223.699219 63.515625 224.574219 63.222656 225.691406 C 63.03125 226.433594 62.832031 227.1875 62.972656 227.957031 C 63.117188 228.75 63.613281 229.359375 63.988281 230.054688 C 64.445312 230.90625 64.632812 231.808594 64.328125 232.742188 C 64.0625 233.539062 63.539062 234.242188 63.453125 235.082031 C 63.421875 235.386719 63.875 235.578125 64.070312 235.339844 C 64.863281 234.371094 65.519531 232.730469 65.398438 231.457031 C 65.324219 230.703125 65.027344 230.003906 64.640625 229.359375 C 64.054688 228.386719 63.683594 227.671875 63.941406 226.503906 C 64.121094 225.691406 64.394531 224.917969 64.316406 224.074219 C 64.25 223.375 63.988281 222.71875 63.695312 222.085938 C 63.242188 221.121094 62.8125 220.304688 63.238281 219.230469 C 63.589844 218.34375 64.234375 217.625 64.734375 216.824219 C 64.804688 216.703125 64.644531 216.589844 64.546875 216.679688 "/>
<path style=" stroke:none;fill-rule:nonzero;fill:rgb(15.289307%,19.999695%,30.198669%);fill-opacity:1;" d="M 51.027344 235.082031 C 51.027344 235.546875 50.652344 235.921875 50.191406 235.921875 C 49.730469 235.921875 49.355469 235.546875 49.355469 235.082031 C 49.355469 234.621094 49.730469 234.246094 50.191406 234.246094 C 50.652344 234.246094 51.027344 234.621094 51.027344 235.082031 "/>
<path style=" stroke:none;fill-rule:nonzero;fill:rgb(15.289307%,19.999695%,30.198669%);fill-opacity:1;" d="M 64.667969 235.082031 C 64.667969 235.546875 64.296875 235.921875 63.835938 235.921875 C 63.371094 235.921875 63 235.546875 63 235.082031 C 63 234.621094 63.371094 234.246094 63.835938 234.246094 C 64.296875 234.246094 64.667969 234.621094 64.667969 235.082031 "/>
<path style=" stroke:none;fill-rule:nonzero;fill:rgb(22.749329%,53.329468%,74.508667%);fill-opacity:1;" d="M 75.164062 211.511719 C 73.949219 210.191406 73.066406 209.554688 71.589844 208.070312 C 70.277344 206.425781 70.601562 204.613281 68.46875 203.460938 C 66.332031 202.472656 59.105469 202.636719 56.96875 203.132812 C 54.832031 202.636719 47.605469 202.472656 45.472656 203.460938 C 43.335938 204.613281 43.664062 206.425781 42.347656 208.070312 C 40.871094 209.554688 39.984375 210.191406 38.773438 211.511719 C 36.046875 214.476562 42.019531 214.496094 43.828125 215.152344 C 47.441406 216.636719 50.5625 218.285156 53.355469 220.917969 C 55 222.402344 55.984375 223.882812 56.96875 225.859375 C 57.957031 223.882812 58.941406 222.402344 60.582031 220.917969 C 63.375 218.285156 66.496094 216.636719 70.109375 215.152344 C 71.917969 214.496094 77.890625 214.476562 75.164062 211.511719 "/>
<path style=" stroke:none;fill-rule:nonzero;fill:rgb(93.728638%,40.388489%,39.219666%);fill-opacity:1;" d="M 52.554688 200.003906 L 50.324219 211.695312 C 50.324219 213.589844 49.097656 218.941406 57.011719 218.941406 C 64.929688 218.941406 63.703125 213.589844 63.703125 211.695312 L 61.472656 200.003906 L 52.554688 200.003906 "/>
<path style=" stroke:none;fill-rule:nonzero;fill:rgb(10.198975%,19.219971%,34.118652%);fill-opacity:1;" d="M 51.796875 203.972656 C 54.261719 206.347656 58.816406 207.117188 62.652344 206.183594 L 61.472656 200.003906 L 52.554688 200.003906 L 51.796875 203.972656 "/>
<path style=" stroke:none;fill-rule:nonzero;fill:rgb(93.728638%,40.388489%,39.219666%);fill-opacity:1;" d="M 46.535156 189.988281 C 45.097656 190.207031 44.183594 191.667969 45.085938 193.71875 C 45.847656 195.457031 46.023438 197.085938 47.460938 196.867188 C 48.902344 196.644531 49.859375 194.925781 49.605469 193.027344 C 49.347656 191.128906 47.976562 189.765625 46.535156 189.988281 "/>
<path style=" stroke:none;fill-rule:nonzero;fill:rgb(93.728638%,40.388489%,39.219666%);fill-opacity:1;" d="M 67.488281 189.988281 C 66.050781 189.765625 64.675781 191.128906 64.417969 193.027344 C 64.164062 194.925781 65.121094 196.644531 66.558594 196.867188 C 68 197.085938 68.175781 195.457031 68.9375 193.71875 C 69.835938 191.667969 68.925781 190.207031 67.488281 189.988281 "/>
<path style=" stroke:none;fill-rule:nonzero;fill:rgb(93.728638%,40.388489%,39.219666%);fill-opacity:1;" d="M 47.179688 186.003906 C 46.9375 186.875 46.808594 187.792969 46.808594 188.738281 L 46.808594 195.152344 C 46.808594 200.804688 51.375 205.382812 57.011719 205.382812 C 62.644531 205.382812 67.21875 200.804688 67.21875 195.152344 L 67.21875 188.738281 C 67.21875 187.792969 67.089844 186.875 66.84375 186.003906 C 66.84375 186.003906 63.835938 173.875 51.320312 179.316406 C 49.203125 180.238281 47.179688 186.003906 47.179688 186.003906 "/>
<path style=" stroke:none;fill-rule:nonzero;fill:rgb(8.628845%,11.369324%,22.749329%);fill-opacity:1;" d="M 67.019531 180.628906 C 66.867188 180.144531 66.660156 179.671875 66.398438 179.21875 C 65.058594 176.914062 62.570312 175.914062 60.027344 175.664062 C 57.726562 175.441406 55.097656 175.507812 52.933594 176.386719 C 50.152344 177.519531 48.320312 180.171875 47.300781 182.902344 C 46.671875 184.589844 46.355469 186.390625 46.480469 188.191406 C 46.539062 189.003906 46.792969 189.785156 46.808594 190.589844 C 46.820312 191.128906 46.808594 191.757812 46.808594 192.253906 C 47.996094 190.753906 48.300781 188.277344 48.238281 186.351562 L 48.265625 186.386719 C 48.269531 186.160156 48.273438 185.921875 48.285156 185.675781 C 48.324219 184.664062 48.460938 183.582031 49.214844 182.886719 C 49.824219 182.328125 50.664062 182.132812 51.476562 182.214844 C 51.984375 182.265625 52.484375 182.414062 52.90625 182.648438 C 54.058594 183.289062 54.695312 184.121094 56.109375 184.21875 C 57.664062 184.332031 59.363281 183.972656 60.71875 183.183594 C 61.320312 182.835938 61.949219 182.375 62.632812 182.140625 C 63.050781 181.992188 63.480469 181.933594 63.9375 182.03125 C 64.929688 182.246094 64.984375 183.148438 64.90625 184.058594 C 64.863281 184.597656 64.769531 185.148438 64.800781 185.554688 C 64.820312 185.910156 65.179688 189.1875 65.414062 189.367188 C 65.84375 190.488281 66.414062 191.476562 67.21875 192.285156 L 67.21875 188.738281 C 67.117188 187.617188 67.371094 186.464844 67.441406 185.347656 C 67.535156 183.761719 67.507812 182.132812 67.019531 180.628906 "/>
<path style=" stroke:none;fill-rule:nonzero;fill:rgb(8.628845%,11.369324%,22.749329%);fill-opacity:1;" d="M 12.449219 227.65625 L 11.648438 228.132812 L 11.648438 227.359375 C 11.648438 226.78125 11.175781 226.308594 10.601562 226.308594 L 6.648438 226.308594 C 6.074219 226.308594 5.605469 226.78125 5.605469 227.359375 L 5.605469 230.53125 C 5.605469 231.109375 6.074219 231.582031 6.648438 231.582031 L 10.601562 231.582031 C 11.175781 231.582031 11.648438 231.109375 11.648438 230.53125 L 11.648438 229.753906 L 12.449219 230.238281 C 12.878906 230.621094 13.230469 230.460938 13.230469 229.886719 L 13.230469 228.007812 C 13.230469 227.429688 12.878906 227.273438 12.449219 227.65625 "/>
<path style=" stroke:none;fill-rule:nonzero;fill:rgb(8.628845%,11.369324%,22.749329%);fill-opacity:1;" d="M 9.417969 223.671875 C 6.515625 223.671875 4.15625 226.039062 4.15625 228.945312 C 4.15625 231.851562 6.515625 234.21875 9.417969 234.21875 C 12.316406 234.21875 14.675781 231.851562 14.675781 228.945312 C 14.675781 226.039062 12.316406 223.671875 9.417969 223.671875 Z M 9.417969 234.589844 C 6.3125 234.589844 3.789062 232.058594 3.789062 228.945312 C 3.789062 225.832031 6.3125 223.304688 9.417969 223.304688 C 12.519531 223.304688 15.046875 225.832031 15.046875 228.945312 C 15.046875 232.058594 12.519531 234.589844 9.417969 234.589844 "/>
<path style=" stroke:none;fill-rule:nonzero;fill:rgb(8.628845%,11.369324%,22.749329%);fill-opacity:1;" d="M 27.347656 230.566406 C 28.152344 230.566406 28.8125 229.910156 28.8125 229.097656 L 28.8125 226.464844 C 28.8125 225.65625 28.152344 224.996094 27.347656 224.996094 C 26.539062 224.996094 25.882812 225.65625 25.882812 226.464844 L 25.882812 229.097656 C 25.882812 229.910156 26.539062 230.566406 27.347656 230.566406 "/>
<path style=" stroke:none;fill-rule:nonzero;fill:rgb(8.628845%,11.369324%,22.749329%);fill-opacity:1;" d="M 29.261719 227.828125 L 29.109375 227.980469 L 29.109375 229.328125 C 29.109375 230.304688 28.320312 231.097656 27.347656 231.097656 C 26.375 231.097656 25.582031 230.304688 25.582031 229.328125 L 25.582031 227.980469 L 25.429688 227.828125 L 25.28125 227.980469 L 25.28125 229.328125 C 25.28125 230.417969 26.128906 231.308594 27.195312 231.386719 L 27.195312 232.742188 L 27.347656 232.890625 L 27.496094 232.742188 L 27.496094 231.386719 C 28.566406 231.308594 29.414062 230.417969 29.414062 229.328125 L 29.414062 227.980469 L 29.261719 227.828125 "/>
<path style=" stroke:none;fill-rule:nonzero;fill:rgb(8.628845%,11.369324%,22.749329%);fill-opacity:1;" d="M 27.347656 223.671875 C 24.445312 223.671875 22.085938 226.039062 22.085938 228.945312 C 22.085938 231.851562 24.445312 234.21875 27.347656 234.21875 C 30.246094 234.21875 32.605469 231.851562 32.605469 228.945312 C 32.605469 226.039062 30.246094 223.671875 27.347656 223.671875 Z M 27.347656 234.589844 C 24.242188 234.589844 21.71875 232.058594 21.71875 228.945312 C 21.71875 225.832031 24.242188 223.304688 27.347656 223.304688 C 30.449219 223.304688 32.976562 225.832031 32.976562 228.945312 C 32.976562 232.058594 30.449219 234.589844 27.347656 234.589844 "/>
<path style=" stroke:none;fill-rule:nonzero;fill:rgb(100%,100%,100%);fill-opacity:1;" d="M 18.875 168.976562 C 17.933594 168.976562 17.171875 168.210938 17.171875 167.269531 C 17.171875 166.324219 17.933594 165.5625 18.875 165.5625 C 19.8125 165.5625 20.574219 166.324219 20.574219 167.269531 C 20.574219 168.210938 19.8125 168.976562 18.875 168.976562 Z M 12.183594 168.976562 C 11.242188 168.976562 10.480469 168.210938 10.480469 167.269531 C 10.480469 166.324219 11.242188 165.5625 12.183594 165.5625 C 13.121094 165.5625 13.882812 166.324219 13.882812 167.269531 C 13.882812 168.210938 13.121094 168.976562 12.183594 168.976562 Z M 5.488281 168.976562 C 4.550781 168.976562 3.789062 168.210938 3.789062 167.269531 C 3.789062 166.324219 4.550781 165.5625 5.488281 165.5625 C 6.429688 165.5625 7.191406 166.324219 7.191406 167.269531 C 7.191406 168.210938 6.429688 168.976562 5.488281 168.976562 Z M 16.613281 163.484375 L 0.105469 163.484375 L 0.105469 171.050781 L 112.085938 171.050781 L 112.085938 163.484375 L 16.613281 163.484375 "/>
<path style=" stroke:none;fill-rule:nonzero;fill:rgb(91.369629%,91.369629%,91.369629%);fill-opacity:1;" d="M 262.945312 163.503906 L 262.945312 237.910156 L 374.917969 237.910156 L 374.917969 163.503906 L 262.945312 163.503906 "/>
<path style=" stroke:none;fill-rule:nonzero;fill:rgb(100%,100%,100%);fill-opacity:1;" d="M 361.667969 220.085938 C 361.667969 226.449219 360.292969 232.480469 357.804688 237.910156 L 280.054688 237.910156 C 277.566406 232.480469 276.191406 226.449219 276.191406 220.085938 C 276.191406 196.417969 295.324219 177.238281 318.929688 177.238281 C 342.535156 177.238281 361.667969 196.417969 361.667969 220.085938 "/>
<path style=" stroke:none;fill-rule:nonzero;fill:rgb(65.489197%,33.329773%,27.059937%);fill-opacity:1;" d="M 344.429688 237.910156 C 345.214844 233.9375 344.703125 229.433594 344.046875 225.972656 C 342.621094 218.464844 337.230469 212.023438 331.222656 209.984375 L 328.722656 237.910156 Z M 293.832031 237.910156 C 292.503906 233.585938 293.066406 228.289062 293.8125 224.34375 C 295.238281 216.835938 300.628906 210.394531 306.636719 208.355469 L 309.191406 236.933594 C 309.058594 237.246094 308.917969 237.574219 308.773438 237.910156 L 293.832031 237.910156 "/>
<path style=" stroke:none;fill-rule:nonzero;fill:rgb(10.198975%,19.219971%,34.118652%);fill-opacity:1;" d="M 298.523438 237.910156 L 303.0625 237.910156 C 302.417969 235.5625 302.566406 233.15625 301.5 230.835938 C 301.171875 230.128906 300.710938 229.46875 300.199219 228.789062 C 300.003906 228.53125 299.570312 228.152344 299.382812 227.8125 C 297.894531 229.371094 297.808594 231.398438 297.734375 233.0625 C 297.65625 234.691406 297.84375 236.320312 298.523438 237.910156 "/>
<path style=" stroke:none;fill-rule:nonzero;fill:rgb(10.198975%,19.219971%,34.118652%);fill-opacity:1;" d="M 338.039062 230.203125 C 337.703125 229.632812 337.234375 228.710938 336.042969 228.402344 C 335.261719 231.589844 333.777344 234.726562 333.011719 237.910156 L 338.820312 237.910156 C 339.097656 236 339.441406 234.085938 338.867188 232.179688 C 338.660156 231.515625 338.421875 230.847656 338.039062 230.203125 "/>
<path style=" stroke:none;fill-rule:nonzero;fill:rgb(65.489197%,33.329773%,27.059937%);fill-opacity:1;" d="M 336.835938 237.910156 C 337.96875 231.015625 338.214844 222.816406 337.132812 217.898438 C 335.570312 210.808594 331.550781 209.0625 325.71875 209.4375 C 320.195312 209.792969 315.152344 208.082031 309.714844 207.929688 C 303.410156 207.75 300.164062 213.316406 299.394531 220.035156 C 298.878906 224.492188 299.382812 231.65625 300.363281 237.910156 L 336.835938 237.910156 "/>
<path style=" stroke:none;fill-rule:nonzero;fill:rgb(95.689392%,43.919373%,57.649231%);fill-opacity:1;" d="M 302.828125 210.296875 C 298.46875 213.269531 294.925781 218.476562 293.8125 224.339844 C 293.066406 228.289062 292.503906 233.585938 293.832031 237.910156 L 308.773438 237.910156 C 308.917969 237.574219 309.058594 237.246094 309.191406 236.933594 L 307.464844 217.609375 C 305.308594 215.753906 303.546875 213.019531 302.828125 210.296875 "/>
<path style=" stroke:none;fill-rule:nonzero;fill:rgb(95.689392%,43.919373%,57.649231%);fill-opacity:1;" d="M 344.046875 225.972656 C 343.058594 220.75 340.144531 216.050781 336.441406 212.980469 C 336.355469 213.1875 336.273438 213.398438 336.175781 213.601562 C 335.300781 215.453125 333.941406 217.023438 332.214844 218.210938 C 331.632812 218.613281 331.015625 218.964844 330.386719 219.300781 L 328.722656 237.910156 L 344.429688 237.910156 C 345.214844 233.9375 344.703125 229.433594 344.046875 225.972656 "/>
<path style=" stroke:none;fill-rule:nonzero;fill:rgb(10.198975%,19.219971%,34.118652%);fill-opacity:1;" d="M 298.523438 237.910156 L 303.0625 237.910156 C 302.417969 235.5625 302.566406 233.15625 301.5 230.835938 C 301.171875 230.128906 300.710938 229.46875 300.199219 228.789062 C 300.003906 228.53125 299.570312 228.152344 299.382812 227.8125 C 297.894531 229.371094 297.808594 231.398438 297.734375 233.0625 C 297.65625 234.691406 297.84375 236.320312 298.523438 237.910156 "/>
<path style=" stroke:none;fill-rule:nonzero;fill:rgb(10.198975%,19.219971%,34.118652%);fill-opacity:1;" d="M 338.039062 230.203125 C 337.703125 229.632812 337.234375 228.710938 336.042969 228.402344 C 335.261719 231.589844 333.777344 234.726562 333.011719 237.910156 L 338.820312 237.910156 C 339.097656 236 339.441406 234.085938 338.867188 232.179688 C 338.660156 231.515625 338.421875 230.847656 338.039062 230.203125 "/>
<path style=" stroke:none;fill-rule:nonzero;fill:rgb(95.689392%,43.919373%,57.649231%);fill-opacity:1;" d="M 337.132812 217.898438 C 336.8125 216.449219 336.390625 215.226562 335.871094 214.195312 C 334.996094 215.789062 333.757812 217.152344 332.214844 218.210938 C 328.820312 220.542969 324.617188 221.761719 320.445312 221.789062 C 316.164062 221.816406 311.886719 220.804688 308.40625 218.355469 C 305.972656 216.636719 303.886719 213.746094 302.96875 210.804688 C 300.980469 213.039062 299.8125 216.367188 299.394531 220.035156 C 298.878906 224.492188 299.382812 231.65625 300.363281 237.910156 L 336.835938 237.910156 C 337.96875 231.015625 338.214844 222.816406 337.132812 217.898438 "/>
<path style=" stroke:none;fill-rule:nonzero;fill:rgb(100%,100%,100%);fill-opacity:1;" d="M 302.59375 211.378906 C 302.652344 211.570312 302.722656 211.757812 302.789062 211.941406 C 302.859375 212.136719 302.929688 212.328125 303.007812 212.519531 C 303.085938 212.703125 303.164062 212.886719 303.25 213.070312 C 303.335938 213.257812 303.425781 213.449219 303.519531 213.640625 C 303.605469 213.8125 303.703125 213.984375 303.796875 214.15625 C 303.898438 214.347656 304.003906 214.542969 304.113281 214.730469 C 304.210938 214.882812 304.308594 215.035156 304.40625 215.1875 C 304.53125 215.382812 304.660156 215.582031 304.789062 215.773438 C 304.878906 215.898438 304.972656 216.015625 305.0625 216.136719 C 305.21875 216.34375 305.371094 216.554688 305.535156 216.757812 L 305.652344 216.890625 C 306.117188 217.445312 306.601562 217.964844 307.121094 218.433594 L 307.121094 218.4375 C 307.433594 218.722656 307.761719 218.992188 308.089844 219.238281 C 311.671875 221.882812 316.082031 222.972656 320.496094 222.945312 C 324.054688 222.917969 327.628906 222 330.738281 220.261719 L 330.738281 220.257812 C 331.023438 220.097656 331.300781 219.933594 331.582031 219.765625 C 331.929688 219.546875 332.28125 219.324219 332.621094 219.082031 C 332.824219 218.933594 333.035156 218.773438 333.234375 218.609375 L 333.445312 218.425781 C 333.570312 218.320312 333.695312 218.210938 333.808594 218.105469 L 334.066406 217.863281 L 334.351562 217.574219 C 334.441406 217.476562 334.527344 217.382812 334.617188 217.285156 L 334.851562 217.015625 C 334.941406 216.90625 335.035156 216.796875 335.121094 216.6875 L 335.316406 216.4375 C 335.410156 216.3125 335.496094 216.191406 335.585938 216.066406 L 335.734375 215.835938 C 335.824219 215.699219 335.917969 215.5625 336 215.417969 L 336.109375 215.234375 C 336.199219 215.070312 336.296875 214.914062 336.378906 214.75 C 336.492188 214.539062 336.597656 214.324219 336.695312 214.105469 L 336.734375 214.011719 C 336.378906 213.652344 336.015625 213.304688 335.640625 212.980469 C 335.558594 213.183594 335.472656 213.394531 335.386719 213.597656 C 335.292969 213.804688 335.195312 214 335.09375 214.195312 C 335.011719 214.347656 334.929688 214.496094 334.84375 214.644531 L 334.746094 214.816406 C 334.664062 214.945312 334.582031 215.074219 334.496094 215.203125 L 334.355469 215.414062 C 334.277344 215.53125 334.191406 215.648438 334.105469 215.757812 L 333.929688 215.988281 C 333.847656 216.09375 333.761719 216.195312 333.679688 216.296875 L 333.457031 216.546875 L 333.210938 216.8125 L 332.945312 217.078125 L 332.714844 217.304688 C 332.605469 217.40625 332.488281 217.503906 332.375 217.601562 L 332.179688 217.773438 C 331.996094 217.921875 331.804688 218.070312 331.609375 218.207031 C 331.296875 218.4375 330.972656 218.640625 330.644531 218.84375 C 330.390625 219 330.132812 219.152344 329.867188 219.300781 C 326.984375 220.914062 323.679688 221.761719 320.378906 221.785156 C 316.296875 221.816406 312.210938 220.804688 308.890625 218.355469 C 308.582031 218.125 308.285156 217.875 307.992188 217.609375 C 307.511719 217.175781 307.0625 216.695312 306.625 216.179688 L 306.523438 216.058594 C 306.367188 215.871094 306.226562 215.675781 306.085938 215.484375 C 306 215.367188 305.917969 215.261719 305.832031 215.144531 C 305.710938 214.96875 305.597656 214.785156 305.476562 214.601562 C 305.386719 214.460938 305.292969 214.324219 305.207031 214.175781 C 305.105469 214 305.011719 213.828125 304.910156 213.648438 C 304.824219 213.488281 304.738281 213.332031 304.65625 213.167969 C 304.566406 212.996094 304.484375 212.816406 304.40625 212.636719 C 304.332031 212.46875 304.253906 212.300781 304.183594 212.132812 C 304.113281 211.953125 304.042969 211.777344 303.976562 211.597656 C 303.914062 211.425781 303.851562 211.25 303.800781 211.074219 C 303.71875 210.816406 303.632812 210.554688 303.566406 210.296875 C 303.210938 210.550781 302.863281 210.828125 302.515625 211.113281 L 302.59375 211.378906 "/>
<path style=" stroke:none;fill-rule:nonzero;fill:rgb(65.489197%,33.329773%,27.059937%);fill-opacity:1;" d="M 325.617188 209.476562 L 324.640625 204.351562 L 323.390625 197.789062 L 314.472656 197.789062 L 312.957031 205.71875 L 312.242188 209.476562 C 312.242188 211.378906 311.015625 216.722656 318.925781 216.722656 C 326.847656 216.722656 325.617188 211.378906 325.617188 209.476562 "/>
<path style=" stroke:none;fill-rule:nonzero;fill:rgb(10.198975%,19.219971%,34.118652%);fill-opacity:1;" d="M 313.714844 201.753906 C 316.179688 204.132812 320.730469 204.902344 324.566406 203.964844 L 323.390625 197.789062 L 314.472656 197.789062 L 313.714844 201.753906 "/>
<path style=" stroke:none;fill-rule:nonzero;fill:rgb(65.489197%,33.329773%,27.059937%);fill-opacity:1;" d="M 308.449219 187.769531 C 307.015625 187.992188 306.101562 189.453125 307.003906 191.503906 C 307.765625 193.242188 307.941406 194.867188 309.378906 194.644531 C 310.816406 194.429688 311.777344 192.710938 311.519531 190.8125 C 311.265625 188.910156 309.890625 187.546875 308.449219 187.769531 "/>
<path style=" stroke:none;fill-rule:nonzero;fill:rgb(65.489197%,33.329773%,27.059937%);fill-opacity:1;" d="M 329.40625 187.769531 C 327.964844 187.546875 326.59375 188.910156 326.335938 190.8125 C 326.078125 192.710938 327.039062 194.429688 328.476562 194.648438 C 329.917969 194.867188 330.089844 193.242188 330.855469 191.503906 C 331.753906 189.453125 330.84375 187.992188 329.40625 187.769531 "/>
<path style=" stroke:none;fill-rule:nonzero;fill:rgb(65.489197%,33.329773%,27.059937%);fill-opacity:1;" d="M 309.097656 183.785156 C 308.855469 184.660156 308.726562 185.574219 308.726562 186.523438 L 308.726562 192.9375 C 308.726562 198.585938 313.292969 203.167969 318.929688 203.167969 C 324.566406 203.167969 329.132812 198.585938 329.132812 192.9375 L 329.132812 186.523438 C 329.132812 185.574219 329.003906 184.660156 328.765625 183.785156 C 328.765625 183.785156 325.753906 171.65625 313.238281 177.097656 C 311.117188 178.019531 309.097656 183.785156 309.097656 183.785156 "/>
<path style=" stroke:none;fill-rule:nonzero;fill:rgb(94.898987%,94.898987%,94.898987%);fill-opacity:1;" d="M 330.320312 194.363281 C 330.320312 194.710938 330.039062 194.996094 329.691406 194.996094 C 329.339844 194.996094 329.0625 194.710938 329.0625 194.363281 C 329.0625 194.011719 329.339844 193.726562 329.691406 193.726562 C 330.039062 193.726562 330.320312 194.011719 330.320312 194.363281 "/>
<path style=" stroke:none;fill-rule:nonzero;fill:rgb(94.898987%,94.898987%,94.898987%);fill-opacity:1;" d="M 308.8125 194.363281 C 308.8125 194.710938 308.527344 194.996094 308.179688 194.996094 C 307.828125 194.996094 307.546875 194.710938 307.546875 194.363281 C 307.546875 194.011719 307.828125 193.730469 308.179688 193.730469 C 308.527344 193.730469 308.8125 194.011719 308.8125 194.363281 "/>
<path style=" stroke:none;fill-rule:nonzero;fill:rgb(8.628845%,11.369324%,22.749329%);fill-opacity:1;" d="M 327.484375 172.839844 C 327.222656 172.152344 326.652344 171.550781 325.875 170.96875 C 324.464844 169.902344 322.503906 169.496094 321.433594 171.273438 C 319.65625 169.90625 316.019531 170.105469 314.824219 172.082031 C 314.527344 172.574219 314.527344 173.617188 314.1875 173.992188 C 313.875 174.335938 313.613281 174.125 313.15625 174.152344 C 311.859375 174.21875 310.5 174.964844 309.601562 175.878906 C 308.902344 176.597656 308.40625 177.445312 308.683594 178.476562 C 307.613281 178.316406 306.71875 180.046875 306.46875 180.886719 C 306.171875 181.941406 306.203125 183.285156 306.726562 184.261719 C 307.054688 184.867188 307.542969 185.371094 308.144531 185.699219 C 307.839844 185.535156 307.601562 186.835938 307.628906 187.011719 C 307.703125 187.5625 308.175781 187.875 308.441406 188.320312 C 308.886719 189.058594 309.25 190.386719 310.320312 189.46875 C 311.160156 188.753906 311.191406 187.222656 310.261719 186.613281 C 312.363281 187.160156 314.238281 184.867188 312.976562 182.988281 C 313.894531 183.210938 314.855469 183.425781 315.796875 183.140625 C 316.480469 182.933594 317.597656 181.773438 317.59375 180.855469 C 318.582031 182.003906 320.722656 181.859375 321.992188 181.382812 C 322.765625 181.09375 323.089844 180.328125 323.695312 180.019531 C 324.460938 179.636719 325.871094 180.613281 326.925781 180.277344 C 328.28125 179.847656 329.722656 178.230469 329.179688 176.71875 C 328.886719 175.910156 328.082031 175.339844 327.238281 175.226562 C 327.699219 174.304688 327.746094 173.527344 327.484375 172.839844 "/>
<path style=" stroke:none;fill-rule:nonzero;fill:rgb(8.628845%,11.369324%,22.749329%);fill-opacity:1;" d="M 324.976562 178.488281 C 323.703125 179.660156 324.941406 182.125 326.3125 182.566406 C 325.972656 183.039062 325.925781 183.808594 326.128906 184.34375 C 326.414062 185.109375 327.355469 185.136719 327.640625 185.601562 C 328.101562 186.351562 326.796875 188.207031 328.070312 188.6875 C 328.042969 189.871094 329.3125 189.265625 329.589844 188.542969 C 329.722656 188.1875 329.652344 187.863281 329.859375 187.550781 C 330.140625 187.136719 330.601562 187.050781 330.792969 186.492188 C 331.085938 185.632812 330.539062 184.800781 330.765625 183.972656 C 331.050781 182.957031 331.742188 181.796875 330.480469 180.992188 C 331.023438 180.160156 331.070312 179.398438 330.453125 178.507812 C 329.988281 177.847656 328.226562 176.691406 327.492188 177.535156 L 324.976562 178.488281 "/>
<path style=" stroke:none;fill-rule:nonzero;fill:rgb(8.628845%,11.369324%,22.749329%);fill-opacity:1;" d="M 275.09375 227.65625 L 274.296875 228.132812 L 274.296875 227.359375 C 274.296875 226.78125 273.824219 226.308594 273.25 226.308594 L 269.300781 226.308594 C 268.722656 226.308594 268.25 226.78125 268.25 227.359375 L 268.25 230.53125 C 268.25 231.109375 268.722656 231.582031 269.300781 231.582031 L 273.25 231.582031 C 273.824219 231.582031 274.296875 231.109375 274.296875 230.53125 L 274.296875 229.753906 L 275.09375 230.238281 C 275.527344 230.621094 275.878906 230.460938 275.878906 229.886719 L 275.878906 228.007812 C 275.878906 227.429688 275.527344 227.273438 275.09375 227.65625 "/>
<path style=" stroke:none;fill-rule:nonzero;fill:rgb(8.628845%,11.369324%,22.749329%);fill-opacity:1;" d="M 272.066406 223.671875 C 269.164062 223.671875 266.804688 226.039062 266.804688 228.945312 C 266.804688 231.851562 269.164062 234.21875 272.066406 234.21875 C 274.964844 234.21875 277.324219 231.851562 277.324219 228.945312 C 277.324219 226.039062 274.964844 223.671875 272.066406 223.671875 Z M 272.066406 234.589844 C 268.960938 234.589844 266.4375 232.058594 266.4375 228.945312 C 266.4375 225.832031 268.960938 223.304688 272.066406 223.304688 C 275.167969 223.304688 277.691406 225.832031 277.691406 228.945312 C 277.691406 232.058594 275.167969 234.589844 272.066406 234.589844 "/>
<path style=" stroke:none;fill-rule:nonzero;fill:rgb(8.628845%,11.369324%,22.749329%);fill-opacity:1;" d="M 289.996094 230.566406 C 290.800781 230.566406 291.460938 229.910156 291.460938 229.097656 L 291.460938 226.464844 C 291.460938 225.65625 290.800781 224.996094 289.996094 224.996094 C 289.1875 224.996094 288.53125 225.65625 288.53125 226.464844 L 288.53125 229.097656 C 288.53125 229.910156 289.1875 230.566406 289.996094 230.566406 "/>
<path style=" stroke:none;fill-rule:nonzero;fill:rgb(8.628845%,11.369324%,22.749329%);fill-opacity:1;" d="M 291.910156 227.828125 L 291.761719 227.980469 L 291.761719 229.328125 C 291.761719 230.304688 290.96875 231.097656 289.996094 231.097656 C 289.023438 231.097656 288.230469 230.304688 288.230469 229.328125 L 288.230469 227.980469 L 288.078125 227.828125 L 287.925781 227.980469 L 287.925781 229.328125 C 287.925781 230.417969 288.777344 231.308594 289.839844 231.386719 L 289.839844 232.742188 L 289.996094 232.890625 L 290.148438 232.742188 L 290.148438 231.386719 C 291.214844 231.308594 292.0625 230.417969 292.0625 229.328125 L 292.0625 227.980469 L 291.910156 227.828125 "/>
<path style=" stroke:none;fill-rule:nonzero;fill:rgb(8.628845%,11.369324%,22.749329%);fill-opacity:1;" d="M 289.996094 223.671875 C 287.09375 223.671875 284.734375 226.039062 284.734375 228.945312 C 284.734375 231.851562 287.09375 234.21875 289.996094 234.21875 C 292.894531 234.21875 295.253906 231.851562 295.253906 228.945312 C 295.253906 226.039062 292.894531 223.671875 289.996094 223.671875 Z M 289.996094 234.589844 C 286.890625 234.589844 284.367188 232.058594 284.367188 228.945312 C 284.367188 225.832031 286.890625 223.304688 289.996094 223.304688 C 293.097656 223.304688 295.625 225.832031 295.625 228.945312 C 295.625 232.058594 293.097656 234.589844 289.996094 234.589844 "/>
<path style=" stroke:none;fill-rule:nonzero;fill:rgb(100%,100%,100%);fill-opacity:1;" d="M 281.523438 168.976562 C 280.582031 168.976562 279.816406 168.210938 279.816406 167.269531 C 279.816406 166.328125 280.582031 165.5625 281.523438 165.5625 C 282.460938 165.5625 283.222656 166.328125 283.222656 167.269531 C 283.222656 168.210938 282.460938 168.976562 281.523438 168.976562 Z M 274.828125 168.976562 C 273.886719 168.976562 273.125 168.210938 273.125 167.269531 C 273.125 166.328125 273.886719 165.5625 274.828125 165.5625 C 275.769531 165.5625 276.53125 166.328125 276.53125 167.269531 C 276.53125 168.210938 275.769531 168.976562 274.828125 168.976562 Z M 268.136719 168.976562 C 267.199219 168.976562 266.4375 168.210938 266.4375 167.269531 C 266.4375 166.328125 267.199219 165.5625 268.136719 165.5625 C 269.078125 165.5625 269.839844 166.328125 269.839844 167.269531 C 269.839844 168.210938 269.078125 168.976562 268.136719 168.976562 Z M 279.261719 163.488281 L 262.753906 163.488281 L 262.753906 171.050781 L 374.734375 171.050781 L 374.734375 163.488281 L 279.261719 163.488281 "/>
</g>
</svg>
