<?xml version="1.0" encoding="UTF-8"?>
<svg xmlns="http://www.w3.org/2000/svg" xmlns:xlink="http://www.w3.org/1999/xlink" width="375pt" height="374.999991pt" viewBox="0 0 375 374.999991" version="1.2">
<defs>
<clipPath id="clip1">
  <path d="M 225 80.15625 L 332 80.15625 L 332 187 L 225 187 Z M 225 80.15625 "/>
</clipPath>
</defs>
<g id="surface1">
<rect x="0" y="0" width="375" height="374.999991" style="fill:rgb(100%,100%,100%);fill-opacity:1;stroke:none;"/>
<rect x="0" y="0" width="375" height="374.999991" style="fill:rgb(100%,100%,100%);fill-opacity:1;stroke:none;"/>
<rect x="0" y="0" width="375" height="374.999991" style="fill:rgb(100%,100%,100%);fill-opacity:1;stroke:none;"/>
<path style=" stroke:none;fill-rule:evenodd;fill:rgb(41.178894%,72.938538%,78.819275%);fill-opacity:1;" d="M 341.859375 156.71875 C 341.859375 156.71875 342.070312 160.742188 339.691406 161.667969 C 337.316406 162.59375 314.929688 172.855469 314.929688 172.855469 C 314.929688 172.855469 312.84375 173.359375 311.679688 172.699219 C 310.519531 172.039062 299.621094 162.929688 299.621094 162.929688 L 303.5625 157.90625 L 313.300781 163.921875 C 313.300781 163.921875 323.042969 159.75 326.578125 155.320312 C 328.25 153.21875 330.589844 151.992188 330.589844 151.992188 C 330.589844 151.992188 338.195312 151.59375 341.859375 156.71875 "/>
<g clip-path="url(#clip1)" clip-rule="nonzero">
<path style=" stroke:none;fill-rule:evenodd;fill:rgb(94.898987%,36.859131%,5.099487%);fill-opacity:1;" d="M 225.273438 152.277344 L 235.6875 130.125 C 243.382812 133.730469 252.558594 130.421875 256.167969 122.742188 C 259.78125 115.0625 256.464844 105.902344 248.773438 102.296875 L 259.1875 80.144531 L 331.449219 114 L 297.535156 186.136719 L 275.34375 175.734375 L 274.605469 177.125 C 270.589844 183.800781 262.074219 186.5 254.863281 183.121094 C 247.171875 179.515625 243.855469 170.355469 247.46875 162.675781 L 225.273438 152.277344 "/>
</g>
<path style=" stroke:none;fill-rule:evenodd;fill:rgb(94.898987%,68.629456%,5.099487%);fill-opacity:1;" d="M 168.789062 254.945312 L 167.21875 254.867188 C 159.457031 254.078125 153.394531 247.527344 153.394531 239.574219 C 153.394531 231.089844 160.292969 224.203125 168.789062 224.203125 L 168.789062 199.734375 L 193.304688 199.734375 C 193.304688 208.21875 200.203125 215.101562 208.703125 215.101562 C 217.199219 215.101562 224.097656 208.21875 224.097656 199.734375 L 248.613281 199.734375 L 248.613281 279.417969 L 168.789062 279.417969 L 168.789062 254.945312 "/>
<path style=" stroke:none;fill-rule:evenodd;fill:rgb(41.178894%,72.938538%,78.819275%);fill-opacity:1;" d="M 114.003906 199.734375 C 114.003906 191.25 120.902344 184.363281 129.398438 184.363281 C 137.898438 184.363281 144.796875 191.25 144.796875 199.734375 L 169.3125 199.734375 L 169.3125 224.203125 C 160.8125 224.203125 153.914062 231.089844 153.914062 239.574219 C 153.914062 248.058594 160.8125 254.945312 169.3125 254.945312 L 169.3125 279.417969 L 89.488281 279.417969 L 89.488281 199.734375 L 114.003906 199.734375 "/>
<path style=" stroke:none;fill-rule:evenodd;fill:rgb(94.898987%,68.629456%,5.099487%);fill-opacity:1;" d="M 76.75 156.464844 L 82.367188 156.511719 L 83.296875 177.320312 C 83.296875 177.320312 82.632812 180.71875 80.3125 180.601562 C 77.984375 180.480469 75.296875 179.261719 75.296875 179.261719 L 55.640625 167.453125 C 55.640625 167.453125 50.265625 161.414062 52.265625 159.183594 C 54.273438 156.953125 56.660156 155.726562 58.992188 156.976562 C 59.785156 157.398438 62.140625 158.90625 64.753906 160.894531 C 69.824219 164.757812 76.183594 170.054688 76.183594 170.054688 L 76.75 156.464844 "/>
<path style=" stroke:none;fill-rule:evenodd;fill:rgb(5.099487%,15.689087%,94.898987%);fill-opacity:1;" d="M 100.089844 198.1875 L 75.574219 198.1875 L 75.574219 118.503906 L 155.398438 118.503906 L 155.398438 142.976562 C 163.898438 142.976562 170.796875 149.863281 170.796875 158.347656 C 170.796875 166.832031 163.898438 173.714844 155.398438 173.714844 L 155.398438 198.1875 L 130.886719 198.1875 C 130.886719 189.703125 123.988281 182.816406 115.488281 182.816406 C 106.988281 182.816406 100.089844 189.703125 100.089844 198.1875 "/>
<path style=" stroke:none;fill-rule:evenodd;fill:rgb(99.21875%,70.979309%,55.688477%);fill-opacity:1;" d="M 67.753906 191.109375 L 71.617188 193.484375 L 77.226562 193.671875 C 77.226562 193.671875 79.492188 194.699219 79.546875 195.027344 C 79.597656 195.351562 78.183594 195.777344 77.546875 195.625 C 76.910156 195.46875 76.070312 195.28125 75.738281 195.632812 C 75.40625 195.984375 77.257812 197.269531 77.8125 197.574219 C 78.359375 197.882812 81.886719 198.0625 82.328125 197.878906 C 82.769531 197.695312 85.09375 199.144531 84.023438 199.660156 C 82.957031 200.175781 77.152344 200.179688 76.316406 199.84375 C 75.480469 199.503906 70.976562 197.449219 69.261719 196.570312 C 68.132812 195.996094 66.015625 194.585938 66.015625 194.585938 L 67.753906 191.109375 "/>
<path style=" stroke:none;fill-rule:evenodd;fill:rgb(99.21875%,70.979309%,55.688477%);fill-opacity:1;" d="M 14.503906 270.625 L 10.492188 278.167969 L 4.886719 275.453125 L 8.265625 267.667969 L 14.503906 270.625 "/>
<path style=" stroke:none;fill-rule:evenodd;fill:rgb(0%,0%,0%);fill-opacity:1;" d="M 6.277344 272.484375 C 6.5625 272.765625 6.246094 274.351562 8.394531 275.484375 C 10.359375 276.523438 11.855469 274.914062 12.34375 275.101562 C 13.453125 275.527344 14.0625 277.703125 16.421875 280.835938 C 17.621094 282.425781 21.8125 285.097656 20.503906 286.648438 C 19.496094 287.839844 4.5625 279.90625 1.730469 277.734375 C 0.421875 276.730469 2.496094 274.53125 3.511719 273.621094 C 4.382812 272.839844 5.84375 272.042969 6.277344 272.484375 "/>
<path style=" stroke:none;fill-rule:evenodd;fill:rgb(99.21875%,70.979309%,55.688477%);fill-opacity:1;" d="M 73.625 273.476562 L 73.269531 282.007812 L 67.035156 281.964844 L 66.71875 273.492188 L 73.625 273.476562 "/>
<path style=" stroke:none;fill-rule:evenodd;fill:rgb(0%,0%,0%);fill-opacity:1;" d="M 67.011719 278.691406 C 67.386719 278.824219 67.789062 280.386719 70.214844 280.488281 C 72.4375 280.578125 73.089844 278.484375 73.613281 278.445312 C 74.792969 278.347656 76.285156 280.042969 79.769531 281.859375 C 81.535156 282.777344 86.476562 283.378906 85.960938 285.347656 C 85.570312 286.851562 68.671875 286.128906 65.175781 285.390625 C 63.5625 285.046875 64.484375 282.167969 65.003906 280.90625 C 65.453125 279.832031 66.425781 278.480469 67.011719 278.691406 "/>
<path style=" stroke:none;fill-rule:evenodd;fill:rgb(85.488892%,30.198669%,0%);fill-opacity:1;" d="M 49.480469 197.25 C 49.480469 197.25 56.460938 195.359375 59.320312 198.003906 C 62.183594 200.648438 75.996094 238.050781 75.996094 238.050781 C 75.996094 238.050781 77.0625 240.828125 76.964844 242.535156 C 76.863281 244.238281 73.703125 275.066406 73.703125 275.066406 L 66.375 275.164062 L 65.3125 244.929688 C 65.3125 244.929688 64.78125 241.820312 64.308594 241.304688 C 63.832031 240.785156 44.71875 208.824219 44.71875 208.824219 C 44.71875 208.824219 42.960938 199.8125 49.480469 197.25 "/>
<path style=" stroke:none;fill-rule:evenodd;fill:rgb(94.898987%,36.859131%,5.099487%);fill-opacity:1;" d="M 44.285156 194.734375 C 44.285156 194.734375 52.066406 198.648438 50.6875 203.476562 C 49.300781 208.308594 32.25 242.59375 32.25 242.59375 L 13.875 272.5625 L 7.042969 269.125 L 21.398438 236.910156 L 33.796875 198.914062 C 33.796875 198.914062 37.265625 192.875 44.285156 194.734375 "/>
<path style=" stroke:none;fill-rule:evenodd;fill:rgb(0%,0%,0%);fill-opacity:1;" d="M 48.640625 133.519531 C 50.273438 133.367188 52.75 135.234375 53.015625 135.765625 C 53.757812 137.25 52.957031 142.417969 52.597656 144.316406 C 51.800781 148.546875 45.453125 149.285156 42.488281 151.261719 C 40.984375 152.257812 38.96875 139.808594 43.164062 136.667969 C 44.320312 135.800781 47 133.671875 48.640625 133.519531 "/>
<path style=" stroke:none;fill-rule:evenodd;fill:rgb(99.21875%,70.979309%,55.688477%);fill-opacity:1;" d="M 49.789062 160.59375 L 56.042969 156.238281 C 56.042969 156.238281 55.746094 155.855469 54.519531 155.546875 C 53.421875 155.265625 52.214844 154.789062 51.515625 154.007812 C 50.105469 152.421875 49.671875 145.167969 49.671875 145.167969 L 42.949219 145.289062 C 42.949219 145.289062 43.296875 151.804688 42.683594 153.617188 C 42.476562 154.238281 41.152344 154.75 40.421875 155.210938 C 39.550781 155.757812 39.277344 156.195312 39.277344 156.195312 L 49.789062 160.59375 "/>
<path style=" stroke:none;fill-rule:evenodd;fill:rgb(94.898987%,68.629456%,5.099487%);fill-opacity:1;" d="M 40.671875 154.714844 C 40.714844 154.484375 44.957031 156.542969 47.078125 156.597656 C 49.203125 156.652344 53.40625 155.042969 53.40625 155.042969 C 53.40625 155.042969 55.503906 155.292969 56.148438 155.589844 C 58.359375 156.597656 60.488281 157.554688 61.195312 159.324219 C 63.386719 164.835938 61.105469 170.210938 59.910156 177.527344 C 59.335938 181.035156 59.703125 186.324219 60.113281 189.527344 C 60.507812 192.617188 65.5 201.402344 61.882812 202.890625 C 54.832031 205.785156 52.4375 202.757812 43.042969 204.503906 C 41.410156 204.804688 33.242188 204.371094 32.183594 202.253906 C 31.488281 200.867188 34.472656 193.523438 35.109375 190.980469 C 36.703125 184.625 35.359375 181.078125 34.152344 172.984375 C 33.90625 171.324219 30.515625 165.140625 30.515625 162.535156 C 30.515625 160.429688 31.960938 158.640625 34.152344 157.371094 C 36.066406 156.261719 40.671875 154.714844 40.671875 154.714844 "/>
<path style=" stroke:none;fill-rule:evenodd;fill:rgb(94.898987%,62.748718%,5.099487%);fill-opacity:1;" d="M 32.339844 158.667969 C 32.339844 158.667969 29.347656 161.164062 30.882812 164.234375 C 32.417969 167.304688 45.753906 186.054688 45.753906 186.054688 L 68.101562 196.472656 L 70.765625 192.472656 L 53.257812 181.230469 C 53.257812 181.230469 51.25 179.414062 50.882812 178.8125 C 50.515625 178.207031 38.785156 158.738281 38.785156 158.738281 C 38.785156 158.738281 35.699219 156.257812 32.339844 158.667969 "/>
<path style=" stroke:none;fill-rule:evenodd;fill:rgb(99.21875%,70.979309%,55.688477%);fill-opacity:1;" d="M 40.628906 135.957031 C 42.152344 133.417969 45.53125 132.953125 48.53125 133.503906 C 49.546875 133.6875 50.722656 135.023438 50.90625 135.484375 C 51.484375 136.914062 52.089844 138.484375 52.304688 139.984375 C 52.546875 141.660156 52.792969 144.0625 52.511719 145.746094 C 52.042969 148.5625 49.074219 150.492188 46.289062 149.796875 C 41.96875 148.71875 40.757812 145.199219 40.253906 141.136719 C 40.050781 139.523438 39.734375 137.445312 40.628906 135.957031 "/>
<path style=" stroke:none;fill-rule:evenodd;fill:rgb(0%,0%,0%);fill-opacity:1;" d="M 52.929688 135.710938 C 53.058594 136.339844 52.5625 137.007812 52.082031 137.429688 C 51.492188 137.957031 50.195312 138.53125 49.375 138.855469 C 48.386719 139.253906 46.136719 139.695312 45.617188 140.734375 C 45.328125 141.308594 45.523438 143.269531 45.15625 143.632812 C 44.730469 144.058594 43.679688 143.90625 43.332031 144.601562 C 42.640625 145.976562 45.0625 146.285156 44.539062 147.851562 C 44.058594 149.28125 44.03125 150.863281 43.65625 152.550781 C 43.007812 155.464844 42.414062 157.902344 41.628906 160.785156 C 40.269531 165.765625 32.917969 171.25 28.011719 167.171875 C 26.832031 166.1875 26.355469 164.902344 26.207031 163.414062 C 26.042969 161.757812 25.660156 159.867188 26.207031 158.234375 C 27.789062 153.496094 33.011719 151.601562 35.535156 147.570312 C 36.847656 145.46875 37.179688 143.460938 37.738281 141.832031 C 38.191406 140.503906 38.4375 138.894531 38.878906 137.785156 C 39.71875 135.71875 41.242188 133.539062 43.367188 132.746094 C 46.683594 131.507812 49.1875 132.085938 51.226562 133.214844 C 52.109375 133.703125 52.785156 135.011719 52.929688 135.710938 "/>
<path style=" stroke:none;fill-rule:evenodd;fill:rgb(99.21875%,70.979309%,55.688477%);fill-opacity:1;" d="M 358.953125 275.761719 L 364.082031 283.230469 L 369.660156 279.699219 L 365.175781 271.902344 L 358.953125 275.761719 "/>
<path style=" stroke:none;fill-rule:evenodd;fill:rgb(0%,0%,0%);fill-opacity:1;" d="M 367.835938 276.738281 C 367.578125 277.066406 368.09375 278.699219 365.96875 280.152344 C 364.023438 281.476562 362.253906 279.964844 361.765625 280.21875 C 360.644531 280.796875 360.261719 283.160156 358.152344 286.746094 C 357.078125 288.5625 352.976562 291.875 354.542969 293.355469 C 355.746094 294.492188 370.535156 284.355469 373.261719 281.734375 C 374.519531 280.519531 372.070312 278.445312 370.886719 277.605469 C 369.882812 276.890625 368.246094 276.222656 367.835938 276.738281 "/>
<path style=" stroke:none;fill-rule:evenodd;fill:rgb(99.21875%,70.979309%,55.688477%);fill-opacity:1;" d="M 302.949219 273.457031 L 299.738281 281.921875 L 305.828125 284.480469 L 309.675781 276.347656 L 302.949219 273.457031 "/>
<path style=" stroke:none;fill-rule:evenodd;fill:rgb(0%,0%,0%);fill-opacity:1;" d="M 307.222656 281.296875 C 306.800781 281.269531 305.753906 282.625 303.347656 281.710938 C 301.144531 280.878906 301.378906 278.566406 300.890625 278.308594 C 299.777344 277.71875 297.613281 278.757812 293.457031 279.074219 C 291.355469 279.238281 286.289062 277.769531 285.964844 279.898438 C 285.71875 281.53125 302.5 287.859375 306.214844 288.585938 C 307.933594 288.929688 308.238281 285.734375 308.253906 284.289062 C 308.265625 283.054688 307.878906 281.332031 307.222656 281.296875 "/>
<path style=" stroke:none;fill-rule:evenodd;fill:rgb(0.389099%,10.198975%,80.778503%);fill-opacity:1;" d="M 338.460938 195.035156 C 338.460938 195.035156 347.515625 198.074219 346.082031 203.152344 C 344.648438 208.230469 324.554688 243.207031 324.554688 243.207031 L 309.5625 277.703125 L 301.992188 274.933594 L 312.355469 238.515625 L 326.710938 198.757812 C 326.710938 198.757812 332.414062 193.390625 338.460938 195.035156 "/>
<path style=" stroke:none;fill-rule:evenodd;fill:rgb(5.099487%,15.689087%,94.898987%);fill-opacity:1;" d="M 336.800781 194.296875 C 336.800781 194.296875 347.554688 194.195312 348.925781 200.933594 C 350.300781 207.71875 351.5625 241.851562 351.5625 241.851562 L 366.832031 273.957031 L 359.824219 277.796875 L 339.523438 246.78125 L 326.972656 203.171875 C 326.972656 203.171875 326.960938 194.554688 336.800781 194.296875 "/>
<path style=" stroke:none;fill-rule:evenodd;fill:rgb(99.21875%,70.979309%,55.688477%);fill-opacity:1;" d="M 307.347656 181.984375 L 303.390625 182.242188 L 297.289062 180.433594 C 297.289062 180.433594 294.648438 180.410156 294.453125 180.699219 C 294.253906 180.988281 295.425781 182.027344 296.109375 182.167969 C 296.789062 182.300781 297.679688 182.496094 297.839844 182.984375 C 298 183.472656 295.644531 183.875 294.980469 183.925781 C 294.3125 183.976562 290.839844 182.570312 290.5 182.195312 C 290.15625 181.824219 287.273438 182.183594 288.070312 183.152344 C 288.867188 184.121094 294.441406 186.722656 295.398438 186.773438 C 296.355469 186.816406 301.738281 187.101562 303.78125 187.027344 C 305.09375 186.980469 307.652344 186.320312 307.652344 186.320312 L 307.347656 181.984375 "/>
<path style=" stroke:none;fill-rule:evenodd;fill:rgb(99.21875%,70.979309%,55.688477%);fill-opacity:1;" d="M 342.492188 153.269531 C 342.492188 153.269531 341.152344 151.371094 341.132812 150.277344 C 341.101562 148.5 342.308594 142.613281 342.308594 142.613281 L 335.449219 141.230469 C 335.449219 141.230469 334.464844 146.359375 333.605469 148.160156 C 332.875 149.6875 330.292969 152.023438 330.292969 152.023438 L 337.714844 155.632812 L 342.492188 153.269531 "/>
<path style=" stroke:none;fill-rule:evenodd;fill:rgb(41.178894%,72.938538%,78.819275%);fill-opacity:1;" d="M 331.796875 150.097656 C 331.796875 150.097656 335.199219 151.804688 337.238281 151.804688 C 337.632812 151.804688 341.617188 151.523438 341.617188 151.523438 C 341.617188 151.523438 344.089844 153.929688 345.027344 155.804688 C 349.675781 165.074219 349.59375 179.933594 349.59375 190.792969 C 349.59375 195.445312 353.117188 205.363281 347.589844 206.742188 C 343.070312 207.871094 338.710938 205.855469 333.199219 206.921875 C 331.058594 207.339844 323.53125 207.628906 323.46875 205.3125 C 323.398438 202.890625 324.015625 197.15625 323.882812 190.972656 C 323.835938 188.726562 323.039062 176.546875 323.1875 174.289062 C 323.472656 169.976562 323.550781 166.941406 324.445312 161.945312 C 324.773438 160.136719 325.855469 156.667969 327.082031 154.691406 C 328.238281 152.828125 331.796875 150.097656 331.796875 150.097656 "/>
<path style=" stroke:none;fill-rule:evenodd;fill:rgb(35.289001%,64.309692%,69.799805%);fill-opacity:1;" d="M 339.316406 154.546875 C 341.128906 155.332031 343.726562 157.71875 341.933594 162.351562 C 340.132812 166.984375 331.851562 186.570312 329.476562 186.875 C 327.097656 187.179688 304.21875 187.3125 304.21875 187.3125 L 303.855469 181.839844 L 325.023438 179.769531 C 325.023438 179.769531 330.746094 160.753906 333.125 156.550781 C 334.195312 154.667969 337.011719 153.546875 339.316406 154.546875 "/>
<path style=" stroke:none;fill-rule:evenodd;fill:rgb(99.21875%,70.979309%,55.688477%);fill-opacity:1;" d="M 345.433594 132.691406 C 344.378906 128.488281 337.699219 128.082031 337.542969 128.234375 C 336.953125 128.824219 336.1875 129.582031 335.769531 130.277344 C 334.863281 131.785156 333.78125 133.5 333.296875 135.191406 C 332.046875 139.5625 332 147.46875 338.855469 146.492188 C 344.625 145.667969 346.628906 137.46875 345.433594 132.691406 "/>
<path style=" stroke:none;fill-rule:evenodd;fill:rgb(0%,0%,0%);fill-opacity:1;" d="M 332.339844 128.585938 C 332.394531 129.878906 333.023438 131.867188 334.542969 132.84375 C 335.628906 133.542969 336.714844 134.109375 337.269531 134.480469 C 338.558594 135.335938 341.566406 135.132812 342.347656 136.695312 C 342.777344 137.550781 341.238281 139.855469 341.644531 140.671875 C 341.898438 141.175781 343.402344 140.9375 343.40625 142.078125 C 343.410156 142.375 343.003906 143.097656 341.816406 143.25 C 340.367188 143.433594 340.796875 146.484375 341.167969 147.164062 C 341.761719 148.257812 343.191406 145.597656 344.855469 144.285156 C 347.023438 142.582031 349.246094 140.980469 349.800781 137.023438 C 349.957031 135.894531 350.128906 133.847656 349.847656 132.71875 C 349.214844 130.203125 348.324219 127.574219 344.675781 126.664062 C 343.140625 126.28125 341.292969 127.160156 339.808594 126.664062 C 338.296875 126.160156 337.402344 125.347656 335.683594 125.171875 C 334.148438 125.015625 332.277344 127.214844 332.339844 128.585938 "/>
</g>
</svg>
