<?xml version="1.0" encoding="UTF-8"?>
<svg xmlns="http://www.w3.org/2000/svg" xmlns:xlink="http://www.w3.org/1999/xlink" width="375pt" height="374.999991pt" viewBox="0 0 375 374.999991" version="1.2">
<defs>
<clipPath id="clip1">
  <path d="M 163 288 L 212 288 L 212 300 L 163 300 Z M 163 288 "/>
</clipPath>
<clipPath id="clip2">
  <path d="M 182 75 L 193 75 L 193 106 L 182 106 Z M 182 75 "/>
</clipPath>
<clipPath id="clip3">
  <path d="M 263 175 L 293.25 175 L 293.25 186 L 263 186 Z M 263 175 "/>
</clipPath>
<clipPath id="clip4">
  <path d="M 81.75 175 L 112 175 L 112 186 L 81.75 186 Z M 81.75 175 "/>
</clipPath>
</defs>
<g id="surface1">
<path style=" stroke:none;fill-rule:nonzero;fill:rgb(35.289001%,34.118652%,34.509277%);fill-opacity:1;" d="M 220.128906 257.203125 C 220.128906 259.796875 218.03125 261.898438 215.4375 261.898438 L 159.464844 261.898438 C 156.871094 261.898438 154.773438 259.796875 154.773438 257.203125 C 154.773438 254.609375 156.871094 252.507812 159.464844 252.507812 L 215.4375 252.507812 C 218.03125 252.507812 220.128906 254.609375 220.128906 257.203125 "/>
<path style=" stroke:none;fill-rule:nonzero;fill:rgb(35.289001%,34.118652%,34.509277%);fill-opacity:1;" d="M 220.128906 269.117188 C 220.128906 271.710938 218.03125 273.8125 215.4375 273.8125 L 159.464844 273.8125 C 156.871094 273.8125 154.773438 271.710938 154.773438 269.117188 C 154.773438 266.527344 156.871094 264.425781 159.464844 264.425781 L 215.4375 264.425781 C 218.03125 264.425781 220.128906 266.527344 220.128906 269.117188 "/>
<path style=" stroke:none;fill-rule:nonzero;fill:rgb(35.289001%,34.118652%,34.509277%);fill-opacity:1;" d="M 216.035156 281.035156 C 216.035156 283.625 213.933594 285.730469 211.339844 285.730469 L 163.558594 285.730469 C 160.96875 285.730469 158.863281 283.625 158.863281 281.035156 C 158.863281 278.441406 160.96875 276.339844 163.558594 276.339844 L 211.339844 276.339844 C 213.933594 276.339844 216.035156 278.441406 216.035156 281.035156 "/>
<g clip-path="url(#clip1)" clip-rule="nonzero">
<path style=" stroke:none;fill-rule:nonzero;fill:rgb(35.289001%,34.118652%,34.509277%);fill-opacity:1;" d="M 199.421875 300.007812 L 175.472656 299.945312 L 163.558594 288.253906 L 211.339844 288.3125 L 199.421875 300.007812 "/>
</g>
<path style=" stroke:none;fill-rule:nonzero;fill:rgb(19.999695%,64.309692%,82.348633%);fill-opacity:1;" d="M 217.558594 228.585938 C 215.226562 229.675781 213.191406 226.21875 215.53125 225.125 C 221.5 222.335938 226.414062 217.039062 223.835938 210.132812 C 222.9375 207.703125 226.8125 206.664062 227.710938 209.066406 C 230.878906 217.574219 225.09375 225.066406 217.558594 228.585938 Z M 244.011719 177.9375 C 243.773438 177.03125 243.46875 176.097656 243.636719 175.140625 C 244.554688 169.824219 244.4375 165.820312 242.382812 160.769531 C 241.675781 159.035156 240.292969 157.691406 239.464844 156.019531 C 238.578125 154.238281 238.195312 152.234375 237.121094 150.539062 C 235.882812 148.59375 234.5625 146.535156 232.714844 145.117188 C 230.945312 143.765625 228.835938 142.828125 227.511719 140.96875 C 226.15625 139.078125 225.855469 136.664062 224.644531 134.691406 C 223.394531 132.648438 221.480469 131.113281 219.472656 129.863281 C 212.886719 125.753906 208.675781 123.484375 201.589844 122.042969 C 198.648438 121.445312 191.859375 120.757812 190.65625 125.214844 C 190.167969 127.007812 190.078125 128.78125 190.070312 130.628906 C 190.070312 130.628906 190.070312 142.960938 190.070312 158.714844 C 190.496094 158.519531 190.902344 158.300781 191.289062 158.050781 C 200.191406 152.269531 201.511719 142.535156 201.5625 132.683594 C 201.578125 130.097656 205.59375 130.09375 205.574219 132.683594 C 205.570312 134.335938 205.515625 136.023438 205.402344 137.71875 C 206.175781 137.03125 207.007812 136.417969 207.980469 135.933594 C 210.273438 134.789062 212.777344 135.496094 215.207031 135.359375 C 217.792969 135.210938 217.78125 139.226562 215.207031 139.371094 C 212.945312 139.5 210.582031 138.691406 208.613281 140.183594 C 207.082031 141.34375 205.925781 142.933594 204.570312 144.285156 C 203.183594 151.300781 200.054688 157.765625 193.316406 161.515625 C 192.308594 162.074219 191.207031 162.515625 190.070312 162.859375 L 190.070312 191.929688 C 192.742188 190.984375 195.09375 189.425781 196.679688 186.816406 C 198.03125 184.59375 199.300781 182.296875 201.371094 180.664062 C 205.996094 177.019531 212.71875 178.570312 217.765625 175.613281 C 220.28125 174.136719 222.464844 172.09375 221.628906 169.683594 C 221.511719 169.25 221.296875 168.898438 221.09375 168.617188 C 220.988281 168.496094 220.507812 167.933594 220.386719 167.808594 C 217.753906 165.128906 214.125 163.34375 210.527344 162.355469 C 209.1875 161.984375 204.382812 160.492188 203.429688 162.1875 C 202.160156 164.441406 198.695312 162.417969 199.964844 160.164062 C 203.753906 153.425781 217.035156 160.039062 221.132812 163.132812 C 221.90625 163.71875 222.691406 164.417969 223.398438 165.199219 C 225.703125 163.890625 227.558594 161.738281 228 159.050781 C 228.402344 156.585938 228.015625 152.984375 225.617188 151.523438 C 222.167969 149.421875 217.824219 149.65625 213.9375 149.136719 C 211.410156 148.796875 211.378906 144.78125 213.9375 145.125 C 220.097656 145.945312 228.796875 145.511719 231.308594 152.714844 C 233.535156 159.097656 230.902344 165.21875 225.535156 168.511719 C 226.019531 169.769531 226.171875 171.121094 225.773438 172.507812 C 224.394531 177.375 218.4375 180.578125 213.796875 181.421875 C 210.074219 182.09375 204.824219 181.78125 202.425781 185.265625 C 200.515625 188.035156 199.074219 191.300781 196.21875 193.273438 C 194.425781 194.511719 192.320312 195.488281 190.070312 196.191406 L 190.070312 208.230469 C 191.75 206.539062 192.925781 204.273438 193.476562 201.441406 C 193.96875 198.902344 197.835938 199.980469 197.34375 202.507812 C 197.199219 203.265625 196.996094 203.976562 196.773438 204.667969 C 201.148438 205.378906 205.511719 206.90625 209.945312 206.859375 C 216.152344 206.796875 218.265625 201.261719 215.976562 195.722656 C 215.753906 195.179688 215.660156 194.785156 215.523438 194.3125 C 213.390625 187.152344 219.070312 179.28125 227.113281 179.097656 C 229.703125 179.042969 229.695312 183.054688 227.113281 183.113281 C 223.792969 183.1875 220.308594 185.585938 219.304688 188.863281 C 218.273438 192.234375 219.613281 195.148438 222.296875 197.332031 C 226.996094 201.15625 233.339844 201.335938 237.597656 196.808594 C 239.375 194.921875 242.207031 197.765625 240.433594 199.648438 C 235.191406 205.21875 226.761719 205.492188 220.851562 201.328125 C 220.542969 204.792969 218.835938 208.03125 215.496094 209.851562 C 209.757812 212.988281 201.707031 209.304688 195.8125 208.527344 C 195.539062 208.492188 195.300781 208.410156 195.085938 208.296875 C 193.792969 210.363281 192.085938 212.015625 190.070312 213.234375 L 190.070312 225.097656 C 190.070312 226.945312 190.25 229.105469 190.527344 230.9375 C 190.828125 232.910156 191.519531 234.75 191.929688 236.699219 C 195.195312 234.113281 199.410156 232.921875 203.605469 233.132812 C 207.265625 229.960938 208.351562 221.824219 204.03125 218.957031 C 201.882812 217.53125 203.890625 214.054688 206.054688 215.492188 C 211.953125 219.40625 211.992188 228.332031 208.140625 233.929688 C 209.265625 234.277344 210.359375 234.722656 211.402344 235.289062 C 213.679688 236.523438 211.652344 239.988281 209.378906 238.753906 C 207.925781 237.964844 206.34375 237.464844 204.730469 237.230469 C 204.308594 237.195312 203.703125 237.125 203.164062 237.082031 C 199.414062 236.949219 195.667969 238.273438 193.113281 241.054688 C 193.59375 242.339844 194.207031 243.566406 195.03125 244.605469 C 195.78125 245.550781 196.726562 246.285156 197.773438 246.847656 C 200.089844 248.085938 202.941406 248.492188 205.472656 248.539062 C 208.675781 248.597656 211.820312 248.417969 214.421875 246.328125 C 216.820312 244.402344 218.628906 241.796875 220.527344 239.410156 C 223.058594 236.226562 224.835938 233.476562 228.195312 231.148438 C 232.210938 228.363281 234.550781 225.578125 235.21875 220.628906 C 235.628906 217.558594 236.730469 215.957031 238.410156 213.402344 C 240.121094 210.792969 240.671875 206.351562 240.800781 203.59375 C 240.90625 201.320312 241.484375 200.210938 241.6875 199.726562 C 243.261719 195.875 243.984375 191.691406 244.664062 187.59375 C 245.226562 184.179688 244.898438 181.246094 244.011719 177.9375 "/>
<path style=" stroke:none;fill-rule:nonzero;fill:rgb(19.999695%,64.309692%,82.348633%);fill-opacity:1;" d="M 149.863281 216.6875 C 150.238281 214.136719 154.105469 215.226562 153.738281 217.757812 C 153.109375 222.003906 154.851562 228.414062 159.757812 229.398438 C 165.101562 230.476562 168.859375 227.753906 170.0625 222.574219 C 170.652344 220.054688 174.519531 221.125 173.9375 223.644531 C 173.101562 227.214844 170.914062 230.335938 167.972656 232.15625 C 169.792969 233.746094 170.679688 236.5 170.992188 238.761719 C 171.136719 239.84375 170.75 240.914062 169.589844 241.230469 C 168.644531 241.492188 167.273438 240.914062 167.121094 239.832031 C 166.878906 238.058594 166.179688 234.914062 163.707031 233.726562 C 162.117188 233.949219 160.425781 233.832031 158.691406 233.269531 C 151.628906 230.984375 148.847656 223.601562 149.863281 216.6875 Z M 166.742188 183.847656 C 169.414062 191.644531 177.320312 193.972656 184.832031 193.074219 L 184.832031 163.648438 C 179.84375 163.683594 174.824219 161.722656 172.105469 157.402344 C 169.679688 153.542969 170.78125 150.214844 170.628906 145.976562 C 170.335938 137.941406 157.113281 146.882812 153.429688 147.464844 C 150.03125 147.996094 146.3125 146.523438 144.800781 143.335938 C 143.929688 143.929688 143.023438 144.480469 142.1875 145.117188 C 140.339844 146.535156 139.019531 148.59375 137.777344 150.539062 C 136.703125 152.234375 136.324219 154.238281 135.4375 156.019531 C 134.609375 157.691406 133.230469 159.035156 132.519531 160.769531 C 130.859375 164.839844 130.425781 168.992188 130.988281 173.339844 C 131.609375 178.15625 129.425781 182.695312 130.238281 187.59375 C 130.914062 191.691406 131.640625 195.875 133.210938 199.726562 C 133.414062 200.210938 133.992188 201.320312 134.097656 203.59375 C 134.226562 206.351562 134.777344 210.792969 136.492188 213.402344 C 138.171875 215.957031 139.269531 217.558594 139.683594 220.628906 C 140.347656 225.578125 142.691406 228.363281 146.707031 231.148438 C 150.0625 233.476562 151.839844 236.226562 154.375 239.410156 C 156.628906 242.253906 158.699219 245.511719 162.007812 247.246094 C 166.257812 249.472656 172.9375 249.089844 177.128906 246.847656 C 178.175781 246.285156 179.117188 245.550781 179.867188 244.605469 C 181.554688 242.480469 182.363281 239.585938 182.921875 236.972656 C 183.359375 234.929688 183.996094 233.199219 184.308594 231.136719 C 184.589844 229.304688 184.832031 226.945312 184.832031 225.097656 L 184.832031 215.328125 C 182.800781 215.792969 180.625 215.96875 178.367188 215.839844 C 171.554688 215.445312 158.484375 212.070312 159.027344 203.046875 C 159.027344 202.972656 159.046875 202.90625 159.058594 202.835938 C 157.527344 202.417969 156.039062 201.78125 154.65625 200.972656 C 150.140625 198.335938 146.339844 193.003906 140.832031 192.742188 C 138.257812 192.625 138.246094 188.609375 140.832031 188.730469 C 143.589844 188.859375 146.019531 190.019531 148.324219 191.53125 C 148.207031 188.773438 148.398438 186.179688 149.800781 183.4375 C 150.976562 181.132812 154.441406 183.164062 153.265625 185.464844 C 151.746094 188.4375 152.257812 191.449219 152.546875 194.609375 C 156.832031 197.851562 161.109375 200.828125 166.785156 198.703125 C 169.214844 197.792969 170.25 201.675781 167.851562 202.574219 C 166.277344 203.164062 164.652344 203.417969 163.039062 203.40625 C 163.082031 210.253906 176.121094 212.09375 180.960938 211.871094 C 182.347656 211.808594 183.636719 211.597656 184.832031 211.25 L 184.832031 197.292969 C 180.5625 197.765625 176.195312 197.269531 172.605469 195.613281 C 165.929688 192.53125 161.824219 186.257812 162.234375 178.839844 C 162.488281 174.261719 165.457031 169.707031 162.242188 165.464844 C 161.710938 164.761719 161.109375 164.125 160.480469 163.523438 C 159.921875 171.8125 144.003906 180.320312 136.476562 174.746094 C 134.421875 173.226562 136.417969 169.738281 138.5 171.28125 C 144.421875 175.664062 161.507812 165.804688 155.183594 160.421875 C 154.859375 160.148438 154.621094 159.855469 154.175781 159.488281 C 153.265625 159.109375 152.339844 158.769531 151.398438 158.496094 C 148.925781 157.765625 149.980469 153.890625 152.46875 154.625 C 157.59375 156.136719 163.675781 159.320312 166.246094 164.285156 C 167.539062 166.78125 168.121094 169.417969 167.652344 172.230469 C 167.007812 176.109375 165.386719 179.910156 166.742188 183.847656 "/>
<path style=" stroke:none;fill-rule:nonzero;fill:rgb(19.999695%,64.309692%,82.348633%);fill-opacity:1;" d="M 184.246094 125.214844 C 183.039062 120.757812 176.253906 121.445312 173.3125 122.042969 C 166.222656 123.484375 162.015625 125.753906 155.425781 129.863281 C 153.953125 130.78125 152.851562 131.824219 151.71875 133.003906 C 151.46875 133.265625 151.21875 133.535156 150.960938 133.808594 C 149.265625 135.621094 149 138.234375 147.792969 140.328125 C 147.90625 141.160156 148.3125 141.9375 149.152344 142.597656 C 151.042969 144.078125 153.644531 143.683594 155.601562 142.585938 C 156.878906 141.875 158.261719 141.078125 159.703125 140.386719 C 159.703125 140.316406 159.691406 140.25 159.695312 140.175781 C 159.9375 133.703125 166.339844 129.117188 172.535156 131.351562 C 174.949219 132.222656 173.90625 136.097656 171.46875 135.21875 C 168.230469 134.054688 164.746094 135.6875 163.902344 138.894531 C 164.8125 138.710938 165.730469 138.625 166.644531 138.695312 C 169.589844 138.917969 172.613281 139.503906 174.003906 142.367188 C 175.238281 144.914062 174.394531 147.949219 174.300781 150.628906 C 174.101562 156.359375 179.507812 159.597656 184.832031 159.714844 C 184.832031 143.488281 184.832031 130.628906 184.832031 130.628906 C 184.820312 128.78125 184.730469 127.007812 184.246094 125.214844 "/>
<g clip-path="url(#clip2)" clip-rule="nonzero">
<path style=" stroke:none;fill-rule:nonzero;fill:rgb(17.649841%,21.569824%,30.198669%);fill-opacity:1;" d="M 192.28125 100.234375 C 192.28125 102.871094 190.132812 105.011719 187.5 105.011719 C 184.863281 105.011719 182.71875 102.871094 182.71875 100.234375 L 182.71875 79.773438 C 182.71875 77.136719 184.863281 74.996094 187.5 74.996094 C 190.132812 74.996094 192.28125 77.136719 192.28125 79.773438 L 192.28125 100.234375 "/>
</g>
<g clip-path="url(#clip3)" clip-rule="nonzero">
<path style=" stroke:none;fill-rule:nonzero;fill:rgb(17.649841%,21.569824%,30.198669%);fill-opacity:1;" d="M 288.464844 175.964844 C 291.105469 175.964844 293.246094 178.105469 293.246094 180.742188 C 293.246094 183.382812 291.105469 185.519531 288.464844 185.519531 L 268.007812 185.519531 C 265.371094 185.519531 263.230469 183.382812 263.230469 180.742188 C 263.230469 178.105469 265.371094 175.964844 268.007812 175.964844 L 288.464844 175.964844 "/>
</g>
<g clip-path="url(#clip4)" clip-rule="nonzero">
<path style=" stroke:none;fill-rule:nonzero;fill:rgb(17.649841%,21.569824%,30.198669%);fill-opacity:1;" d="M 106.992188 175.964844 C 109.628906 175.964844 111.765625 178.105469 111.765625 180.742188 C 111.765625 183.382812 109.628906 185.519531 106.992188 185.519531 L 86.53125 185.519531 C 83.890625 185.519531 81.753906 183.382812 81.753906 180.742188 C 81.753906 178.105469 83.890625 175.964844 86.53125 175.964844 L 106.992188 175.964844 "/>
</g>
<path style=" stroke:none;fill-rule:nonzero;fill:rgb(17.649841%,21.569824%,30.198669%);fill-opacity:1;" d="M 262.277344 248.757812 C 264.140625 250.625 264.140625 253.652344 262.273438 255.515625 C 260.40625 257.382812 257.382812 257.382812 255.515625 255.515625 L 241.046875 241.046875 C 239.183594 239.183594 239.183594 236.15625 241.046875 234.292969 C 242.914062 232.425781 245.941406 232.425781 247.808594 234.292969 L 262.277344 248.757812 "/>
<path style=" stroke:none;fill-rule:nonzero;fill:rgb(17.649841%,21.569824%,30.198669%);fill-opacity:1;" d="M 133.949219 120.433594 C 135.816406 122.300781 135.816406 125.324219 133.949219 127.191406 C 132.082031 129.058594 129.054688 129.058594 127.191406 127.191406 L 112.722656 112.726562 C 110.859375 110.859375 110.859375 107.832031 112.722656 105.964844 C 114.585938 104.101562 117.613281 104.101562 119.480469 105.964844 L 133.949219 120.433594 "/>
<path style=" stroke:none;fill-rule:nonzero;fill:rgb(17.649841%,21.569824%,30.198669%);fill-opacity:1;" d="M 255.515625 105.964844 C 257.382812 104.101562 260.40625 104.101562 262.277344 105.96875 C 264.140625 107.832031 264.140625 110.859375 262.277344 112.726562 L 247.808594 127.191406 C 245.941406 129.058594 242.914062 129.058594 241.046875 127.191406 C 239.183594 125.324219 239.183594 122.300781 241.046875 120.433594 L 255.515625 105.964844 "/>
<path style=" stroke:none;fill-rule:nonzero;fill:rgb(17.649841%,21.569824%,30.198669%);fill-opacity:1;" d="M 127.191406 234.292969 C 129.054688 232.425781 132.082031 232.425781 133.949219 234.292969 C 135.816406 236.15625 135.816406 239.183594 133.949219 241.046875 L 119.480469 255.515625 C 117.613281 257.382812 114.59375 257.382812 112.726562 255.515625 C 110.859375 253.652344 110.859375 250.621094 112.726562 248.757812 L 127.191406 234.292969 "/>
<path style=" stroke:none;fill-rule:nonzero;fill:rgb(17.649841%,21.569824%,30.198669%);fill-opacity:1;" d="M 161.632812 104.351562 C 162.628906 106.796875 161.449219 109.582031 159.003906 110.574219 C 156.558594 111.570312 153.773438 110.394531 152.78125 107.949219 L 145.082031 88.992188 C 144.089844 86.546875 145.265625 83.757812 147.710938 82.765625 C 150.15625 81.769531 152.945312 82.953125 153.9375 85.398438 L 161.632812 104.351562 "/>
<path style=" stroke:none;fill-rule:nonzero;fill:rgb(17.649841%,21.569824%,30.198669%);fill-opacity:1;" d="M 279.25 138.324219 C 281.699219 137.332031 284.484375 138.507812 285.476562 140.953125 C 286.46875 143.398438 285.292969 146.1875 282.84375 147.179688 L 263.886719 154.878906 C 261.445312 155.871094 258.65625 154.691406 257.664062 152.246094 C 256.671875 149.800781 257.851562 147.015625 260.292969 146.023438 L 279.25 138.324219 "/>
<path style=" stroke:none;fill-rule:nonzero;fill:rgb(17.649841%,21.569824%,30.198669%);fill-opacity:1;" d="M 111.105469 206.609375 C 113.550781 205.613281 116.339844 206.789062 117.332031 209.238281 C 118.328125 211.679688 117.148438 214.46875 114.707031 215.460938 L 95.75 223.160156 C 93.304688 224.152344 90.515625 222.972656 89.523438 220.527344 C 88.53125 218.082031 89.707031 215.296875 92.152344 214.304688 L 111.105469 206.609375 "/>
<path style=" stroke:none;fill-rule:nonzero;fill:rgb(17.649841%,21.569824%,30.198669%);fill-opacity:1;" d="M 282.371094 215.625 C 284.804688 216.652344 285.9375 219.453125 284.914062 221.886719 C 283.882812 224.316406 281.082031 225.453125 278.652344 224.429688 L 259.804688 216.46875 C 257.375 215.441406 256.234375 212.636719 257.265625 210.207031 C 258.289062 207.777344 261.09375 206.636719 263.527344 207.664062 L 282.371094 215.625 "/>
<path style=" stroke:none;fill-rule:nonzero;fill:rgb(17.649841%,21.569824%,30.198669%);fill-opacity:1;" d="M 115.195312 145.015625 C 117.625 146.042969 118.765625 148.847656 117.738281 151.277344 C 116.710938 153.707031 113.90625 154.847656 111.476562 153.820312 L 92.625 145.855469 C 90.195312 144.832031 89.058594 142.027344 90.082031 139.597656 C 91.113281 137.164062 93.917969 136.027344 96.347656 137.054688 L 115.195312 145.015625 "/>
<path style=" stroke:none;fill-rule:nonzero;fill:rgb(17.649841%,21.569824%,30.198669%);fill-opacity:1;" d="M 222.382812 85.871094 C 223.410156 83.4375 226.210938 82.300781 228.644531 83.328125 C 231.074219 84.355469 232.214844 87.15625 231.1875 89.589844 L 223.226562 108.433594 C 222.199219 110.867188 219.394531 112.007812 216.964844 110.980469 C 214.535156 109.953125 213.398438 107.148438 214.421875 104.714844 L 222.382812 85.871094 "/>
</g>
</svg>
