<svg width="268" height="268" viewBox="0 0 268 268" fill="none" xmlns="http://www.w3.org/2000/svg">
<path d="M85.9875 105.152H66.386C65.8404 105.152 65.3001 105.045 64.796 104.836C64.2921 104.627 63.8341 104.321 63.4487 103.935C63.0631 103.549 62.7573 103.09 62.5491 102.586C62.3408 102.082 62.2339 101.541 62.2347 100.996V53.868C62.2347 53.3229 62.3422 52.7832 62.5507 52.2796C62.7594 51.7763 63.0652 51.3188 63.4506 50.9334C63.8363 50.548 64.2937 50.2425 64.7976 50.0343C65.3011 49.826 65.8409 49.7188 66.386 49.7194H98.747C99.2929 49.7175 99.834 49.8236 100.339 50.0311C100.844 50.2388 101.303 50.544 101.69 50.9294C102.077 51.3148 102.384 51.7728 102.594 52.2769C102.803 52.7813 102.911 53.3218 102.912 53.868V66.5793" stroke="#CCDDE2" stroke-width="4.5" stroke-miterlimit="10"/>
<path d="M97.764 55.4304H67.7936C66.6465 55.4304 65.7166 56.3604 65.7166 57.5074V63.1033C65.7166 64.2503 66.6465 65.1803 67.7936 65.1803H97.764C98.911 65.1803 99.841 64.2503 99.841 63.1033V57.5074C99.841 56.3604 98.911 55.4304 97.764 55.4304Z" stroke="#CCDDE2" stroke-width="4.5" stroke-miterlimit="10"/>
<path d="M82.5676 59.5362C83.1242 59.5362 83.5753 59.0849 83.5753 58.5286C83.5753 57.9719 83.1242 57.5209 82.5676 57.5209C82.0112 57.5209 81.5599 57.9719 81.5599 58.5286C81.5599 59.0849 82.0112 59.5362 82.5676 59.5362Z" fill="#56af89"/>
<path d="M79.7512 63.0926C79.7273 62.7086 79.7825 62.3237 79.9133 61.9617C80.0438 61.5996 80.2472 61.2681 80.511 60.9878C80.7747 60.7074 81.0928 60.4839 81.446 60.3312C81.7995 60.1784 82.1801 60.0996 82.5652 60.0996C82.95 60.0996 83.3309 60.1784 83.6841 60.3312C84.0373 60.4839 84.3554 60.7074 84.6191 60.9878C84.8828 61.2681 85.0863 61.5996 85.217 61.9617C85.3476 62.3237 85.4028 62.7086 85.3792 63.0926H79.7512Z" fill="#D7E8F0"/>
<path d="M82.7745 75.6295C81.7001 75.6295 80.6498 75.9482 79.7563 76.545C78.863 77.1421 78.1668 77.9903 77.7556 78.983C77.3445 79.9757 77.2368 81.068 77.4464 82.1218C77.6559 83.1756 78.1735 84.1433 78.9332 84.9031C79.693 85.6629 80.6608 86.1804 81.7145 86.39C82.7683 86.5996 83.8607 86.4918 84.8534 86.0807C85.846 85.6696 86.6942 84.9733 87.2913 84.0801C87.8882 83.1866 88.2068 82.1363 88.2068 81.0619C88.2071 80.3485 88.0669 79.642 87.7941 78.9827C87.521 78.3235 87.1209 77.7245 86.6165 77.2198C86.1119 76.7155 85.5129 76.3153 84.8536 76.0422C84.1946 75.7694 83.4879 75.6292 82.7745 75.6295ZM82.7745 85.181C82.5863 85.15 82.4156 85.0532 82.2923 84.908C82.1691 84.7627 82.1013 84.5783 82.1013 84.3878C82.1013 84.1972 82.1691 84.0128 82.2923 83.8676C82.4156 83.7223 82.5863 83.6256 82.7745 83.5945C82.8894 83.5755 83.0074 83.5819 83.1199 83.613C83.2322 83.6441 83.3365 83.6993 83.4254 83.7748C83.5144 83.8502 83.586 83.9442 83.635 84.0501C83.6838 84.1559 83.7093 84.2712 83.7093 84.3878C83.7093 84.5043 83.6838 84.6198 83.635 84.7257C83.586 84.8316 83.5144 84.9254 83.4254 85.0009C83.3365 85.0763 83.2322 85.1315 83.1199 85.1625C83.0074 85.1939 82.8894 85.2001 82.7745 85.181ZM83.7795 79.0733C83.65 80.2748 83.4287 81.4647 83.1175 82.6324C83.0848 82.6948 83.0355 82.7468 82.9755 82.7832C82.9152 82.8197 82.846 82.839 82.7758 82.839C82.7053 82.839 82.6365 82.8197 82.5762 82.7832C82.5159 82.7468 82.4668 82.6948 82.4341 82.6324C82.1862 81.7715 81.9962 80.8949 81.866 80.0086C81.7561 79.3654 81.3809 78.3202 81.74 77.6931C82.0562 77.133 82.9514 77.066 83.4686 77.3581C84.1038 77.7199 83.8545 78.4864 83.7795 79.0733Z" fill="#D7E8F0"/>
<path d="M69.1282 69.5326H95.6629" stroke="#CCDDE2" stroke-width="4.5" stroke-miterlimit="10"/>
<path d="M69.1282 72.1455H95.6629" stroke="#CCDDE2" stroke-width="4.5" stroke-miterlimit="10"/>
<path d="M69.1282 88.9625H95.6629" stroke="#CCDDE2" stroke-width="4.5" stroke-miterlimit="10"/>
<path d="M75.2922 91.4336H89.4989" stroke="#CCDDE2" stroke-width="4.5" stroke-miterlimit="10"/>
<path d="M233.056 95.0811H192.381C188.995 95.0811 186.25 97.8264 186.25 101.213V170.681C186.25 174.068 188.995 176.813 192.381 176.813H233.056C236.442 176.813 239.188 174.068 239.188 170.681V101.213C239.188 97.8264 236.442 95.0811 233.056 95.0811Z" fill="#56af89"/>
<path d="M177.456 95.0811H149.134C145.747 95.0811 143.002 97.8264 143.002 101.213V170.681C143.002 174.068 145.747 176.813 149.134 176.813H177.456C180.843 176.813 183.588 174.068 183.588 170.681V101.213C183.588 97.8264 180.843 95.0811 177.456 95.0811Z" fill="#56af89"/>
<path d="M145.348 218.374H238.896C240.512 218.374 242.062 217.732 243.205 216.589C244.348 215.446 244.991 213.896 244.993 212.28V96.1584C244.993 95.3576 244.835 94.5646 244.529 93.8247C244.223 93.0847 243.774 92.4126 243.208 91.8463C242.641 91.28 241.969 90.8311 241.229 90.5248C240.489 90.2185 239.697 90.0609 238.896 90.0614H175.321L158.705 90.1606H158.657L150.255 90.4875H150.228L148.017 90.5733H147.821L147.658 91.8892L147.336 94.336C147.34 94.3406 147.342 94.3462 147.342 94.3521C147.342 94.3577 147.34 94.3636 147.336 94.3682L144.721 98.2434L144.185 99.0287L142.708 108.478V108.524C142.676 108.511 142.644 108.492 142.603 108.47C142.571 108.452 142.541 108.43 142.512 108.406C142.015 108.032 141.642 107.518 141.44 106.929C140.95 105.686 140.832 104.038 140.827 102.73L140.505 109.909V109.936L140.057 119.528L139.947 122.103C140.157 121.731 140.457 121.195 140.805 120.554L139.693 127.662L139.462 132.783L138.889 145.725L138.867 146.207V146.392L138.717 149.544V149.616C138.717 149.616 138.289 158.865 138.289 158.878L138.248 159.736L137.753 163.48L136.305 173.956V212.28C136.306 213.372 136.6 214.444 137.157 215.382C137.715 216.321 138.514 217.093 139.473 217.616C141.287 218.6 143.295 218.468 145.289 218.401C145.825 218.385 146.361 218.361 146.897 218.332" fill="#56af89"/>
<path d="M141.796 216.375C141.758 216.375 141.718 216.34 141.673 216.327C141.163 216.144 140.682 215.892 140.241 215.576C139.469 215.028 138.84 214.302 138.407 213.46C137.974 212.618 137.749 211.684 137.752 210.736V159.591L136.305 160.285L136.213 160.331L136.018 159.846L135.05 157.434L134.782 156.767L132.335 150.659C132.335 150.659 136.983 131.856 140.057 119.528C141.182 115.001 142.099 111.346 142.485 109.81C142.603 109.352 142.672 109.084 142.686 109.038C142.687 109.028 142.687 109.017 142.686 109.006C142.694 108.915 142.68 108.823 142.645 108.738C142.607 108.639 142.562 108.543 142.509 108.452C142.503 108.433 142.493 108.414 142.482 108.398C142.163 107.856 141.805 107.338 141.41 106.849L140.901 100.543L140.984 100.479L141.37 100.17L144.007 98.08L144.621 96.4559L145.824 93.2988L146.36 91.8918H147.636H147.963H150.27L158.798 91.865H159.529L175.709 91.7686H237.614C238.394 91.7686 239.165 91.9221 239.885 92.2207C240.606 92.5192 241.26 92.9569 241.811 93.5084C242.361 94.0599 242.798 94.7147 243.096 95.4353C243.393 96.1557 243.546 96.9278 243.545 97.7074V210.736C243.546 211.516 243.393 212.288 243.096 213.009C242.798 213.729 242.361 214.384 241.811 214.935C241.26 215.487 240.606 215.925 239.885 216.223C239.165 216.522 238.394 216.675 237.614 216.675H145.459" fill="#56af89"/>
<path d="M147.99 90.2195L150.182 90.2061H150.227L158.643 90.1606H158.702L175.318 90.0614H238.895C240.512 90.0619 242.062 90.7046 243.206 91.8479C244.349 92.9912 244.992 94.5416 244.992 96.1584V212.28C244.991 213.896 244.348 215.446 243.205 216.589C242.062 217.732 240.512 218.374 238.895 218.374H142.236C140.661 218.374 139.15 217.749 138.036 216.635C136.923 215.521 136.297 214.011 136.297 212.436V199.756" stroke="#1A1A1A" stroke-width="4.5" stroke-miterlimit="10"/>
<path d="M233.055 182.816H149.134C145.747 182.816 143.002 185.562 143.002 188.948V205.995C143.002 209.382 145.747 212.127 149.134 212.127H233.055C236.442 212.127 239.187 209.382 239.187 205.995V188.948C239.187 185.562 236.442 182.816 233.055 182.816Z" fill="white"/>
<path d="M205.31 189.345H151.099C149.952 189.345 149.022 190.275 149.022 191.422V203.943C149.022 205.09 149.952 206.02 151.099 206.02H205.31C206.457 206.02 207.387 205.09 207.387 203.943V191.422C207.387 190.275 206.457 189.345 205.31 189.345Z" fill="#56af89"/>
<path d="M195.584 196.369C196.537 196.369 197.31 195.596 197.31 194.643C197.31 193.69 196.537 192.917 195.584 192.917C194.631 192.917 193.858 193.69 193.858 194.643C193.858 195.596 194.631 196.369 195.584 196.369Z" fill="white"/>
<path d="M190.765 202.447C190.765 201.168 191.273 199.941 192.178 199.036C193.082 198.132 194.309 197.623 195.589 197.623C196.868 197.623 198.095 198.132 199 199.036C199.904 199.941 200.413 201.168 200.413 202.447H190.765Z" fill="white"/>
<path d="M222.11 189.347C220.429 189.346 218.786 189.843 217.388 190.775C215.99 191.708 214.899 193.034 214.255 194.587C213.611 196.139 213.442 197.848 213.769 199.496C214.096 201.145 214.905 202.66 216.093 203.848C217.281 205.037 218.795 205.847 220.443 206.175C222.092 206.503 223.8 206.335 225.353 205.692C226.906 205.049 228.233 203.959 229.167 202.562C230.1 201.164 230.598 199.521 230.598 197.84C230.598 196.725 230.379 195.621 229.952 194.591C229.526 193.561 228.901 192.625 228.113 191.836C227.325 191.047 226.389 190.422 225.359 189.995C224.329 189.568 223.225 189.348 222.11 189.347ZM222.11 204.283C221.942 204.291 221.774 204.264 221.617 204.206C221.459 204.147 221.315 204.056 221.194 203.94C221.072 203.824 220.975 203.685 220.909 203.53C220.843 203.375 220.809 203.209 220.809 203.041C220.809 202.873 220.843 202.706 220.909 202.552C220.975 202.397 221.072 202.258 221.194 202.141C221.315 202.025 221.459 201.935 221.617 201.876C221.774 201.817 221.942 201.791 222.11 201.799C222.43 201.813 222.731 201.951 222.952 202.182C223.173 202.414 223.296 202.721 223.296 203.041C223.296 203.361 223.173 203.668 222.952 203.899C222.731 204.131 222.43 204.268 222.11 204.283ZM223.673 194.729C223.405 196.572 223.187 198.508 222.638 200.293C222.515 200.724 221.703 200.724 221.566 200.293C221.177 198.947 220.879 197.577 220.676 196.192C220.505 195.187 219.918 193.552 220.481 192.577C220.976 191.7 222.375 191.596 223.179 192.041C224.182 192.609 223.78 193.812 223.673 194.729Z" fill="#56af89"/>
<path d="M231.131 154.164C230.719 157.715 229.249 161.061 226.912 163.765C224.575 166.47 221.478 168.41 218.025 169.333C214.571 170.255 210.92 170.118 207.545 168.939C204.17 167.759 201.228 165.593 199.101 162.72C196.973 159.847 195.759 156.401 195.615 152.829C195.471 149.258 196.404 145.725 198.293 142.69C200.183 139.656 202.941 137.259 206.21 135.812C209.479 134.365 213.107 133.935 216.624 134.576C216.779 134.606 216.926 134.667 217.056 134.756C217.186 134.845 217.296 134.959 217.38 135.092C217.465 135.225 217.521 135.374 217.545 135.53C217.569 135.685 217.561 135.844 217.522 135.997L217.171 137.366L214.025 149.651C213.974 149.847 213.977 150.053 214.031 150.248C214.085 150.442 214.19 150.619 214.335 150.761C214.479 150.902 214.658 151.003 214.854 151.054C215.05 151.104 215.255 151.102 215.45 151.047L227.663 147.633L229.333 147.167C229.481 147.125 229.637 147.114 229.79 147.133C229.943 147.153 230.091 147.203 230.225 147.28C230.358 147.358 230.475 147.462 230.567 147.586C230.66 147.709 230.727 147.851 230.764 148C231.245 150.018 231.369 152.104 231.131 154.164Z" fill="white"/>
<path d="M231.551 141.504C231.609 141.654 231.635 141.814 231.627 141.974C231.619 142.135 231.577 142.291 231.505 142.435C231.432 142.578 231.33 142.704 231.206 142.806C231.082 142.907 230.937 142.981 230.782 143.024L229.633 143.345L219.687 146.124C219.492 146.178 219.287 146.181 219.091 146.13C218.895 146.08 218.716 145.979 218.571 145.838C218.427 145.696 218.322 145.519 218.268 145.324C218.213 145.129 218.211 144.924 218.261 144.728L220.831 134.726L221.078 133.767C221.117 133.614 221.187 133.471 221.283 133.347C221.38 133.223 221.5 133.12 221.638 133.044C221.777 132.969 221.929 132.922 222.085 132.908C222.242 132.894 222.4 132.913 222.549 132.963C224.573 133.661 226.423 134.785 227.976 136.258C229.529 137.731 230.748 139.52 231.551 141.504Z" fill="white"/>
<path d="M213.178 111.065C215.884 111.065 218.077 108.871 218.077 106.166C218.077 103.46 215.884 101.266 213.178 101.266C210.472 101.266 208.279 103.46 208.279 106.166C208.279 108.871 210.472 111.065 213.178 111.065Z" fill="#D7E8F0"/>
<path d="M231.249 116.993H195.587V117.974H231.249V116.993Z" fill="#D7E8F0"/>
<path d="M231.249 120.621H195.587V121.602H231.249V120.621Z" fill="#D7E8F0"/>
<path d="M231.249 123.929H195.587V124.909H231.249V123.929Z" fill="#D7E8F0"/>
<path d="M177.343 137.484H149.407V138.465H177.343V137.484Z" fill="#D7E8F0"/>
<path d="M177.343 141.443H149.407V142.423H177.343V141.443Z" fill="#D7E8F0"/>
<path d="M177.343 145.398H149.407V146.379H177.343V145.398Z" fill="#D7E8F0"/>
<path d="M177.343 149.356H149.407V150.337H177.343V149.356Z" fill="#D7E8F0"/>
<path d="M177.343 153.315H149.407V154.296H177.343V153.315Z" fill="#D7E8F0"/>
<path d="M145.575 109.612C145.575 109.612 154.065 122.983 163.74 127.185C173.415 131.387 176.438 133.244 180.139 131.741C183.84 130.237 190.945 128.131 195.951 113.249C200.957 98.3668 203.343 90.5331 203.519 86.9285C203.696 83.3239 193.743 86.2853 193.743 86.2853C193.743 86.2853 188.383 102.084 176.639 109.135L159.913 91.4685L145.575 109.612Z" fill="white"/>
<path d="M135.654 130.16L142.488 132.014C142.488 132.014 134.552 142.957 141.609 154.414C148.665 165.871 163.196 188.986 163.196 188.986L191.009 233.206L164.997 229.58L145.575 208.306L135.659 198.419L123.232 159.626L135.654 130.16Z" fill="white"/>
<path d="M24.0693 186.708C24.6838 187.04 25.3951 187.147 26.0802 187.01C26.7653 186.874 27.3813 186.502 27.8213 185.96L37.9357 173.559L46.0963 163.317L39.415 159.565C38.723 159.174 37.904 159.074 37.1384 159.286C36.3724 159.499 35.7223 160.006 35.3307 160.698L22.8794 182.567C22.6811 182.916 22.5544 183.301 22.507 183.699C22.4595 184.098 22.4922 184.502 22.603 184.888C22.7139 185.273 22.9007 185.633 23.1525 185.946C23.4043 186.258 23.716 186.517 24.0693 186.708Z" fill="#2E2E2E"/>
<path d="M178.024 245.198L186.442 253.48C187.169 254.196 188.148 254.598 189.168 254.6H210.219C210.872 254.603 211.512 254.415 212.06 254.06C212.608 253.706 213.041 253.199 213.307 252.602C213.572 252.005 213.657 251.344 213.553 250.7C213.449 250.055 213.159 249.455 212.719 248.972C212.166 248.353 211.401 247.963 210.575 247.878L198.899 246.681L178.024 245.198Z" fill="#2E2E2E"/>
<path d="M101.152 141.622C101.152 141.622 117.433 146.151 128.287 147.502C139.141 148.853 138.38 144.35 138.38 144.35L139.706 138.663C143.19 132.987 145.214 120.911 145.214 120.911L146.613 111.464L148.655 115.058L155.256 121.707L155.336 121.771C155.135 118.595 155.288 114.133 156.027 108.055C157.732 93.9849 163.376 95.617 163.376 95.617L162.548 94.7085C158.648 88.2203 146.2 81.3621 142.223 79.722C138.246 78.0818 139.947 80.4054 140.454 82.134C140.96 83.8626 139.513 88.7268 133.716 86.2504C127.92 83.7741 127.627 78.3873 127.627 78.3873H124.934C108.412 80.3732 100.01 89.185 100.01 89.185C117.561 93.3256 113.533 108.213 113.533 108.213L111.941 109.668C105.71 115.071 105.276 120.281 105.815 122.452C106.354 124.623 110.197 127.544 117.135 129.238C124.074 130.931 125.336 130.934 126.904 127.935C128.472 124.936 130.299 124.566 132.8 124.116C135.3 123.666 138.364 125.443 137.664 126.842C136.965 128.241 136.458 127.019 138.2 130.797C139.942 134.576 139.133 136.498 134.448 139.979C129.763 143.46 108.934 141.507 108.934 141.507C98.9729 138.752 101.152 141.622 101.152 141.622Z" fill="#2E2E2E"/>
<path d="M139.232 78.4758V79.0466V79.1913C143.888 80.3553 148.274 82.414 152.144 85.2535C152.771 85.7118 153.382 86.1781 153.985 86.6685C154.001 84.6987 153.833 82.7209 153.197 80.8556C152.683 79.2551 151.713 77.8387 150.407 76.7793C149.258 75.8628 147.899 75.2759 146.532 74.7452C145.165 74.2146 143.823 73.7483 142.568 73.0327C141.511 72.4546 140.588 71.66 139.859 70.7011C139.603 70.3543 139.444 69.9461 139.397 69.5179C139.35 69.0896 139.417 68.6565 139.591 68.2623C139.468 68.254 139.346 68.2296 139.229 68.1899L139.232 78.4758Z" fill="#56af89"/>
<path d="M139.232 78.4758V79.0466V79.1913C143.888 80.3553 148.274 82.414 152.144 85.2535C152.771 85.7118 153.382 86.1781 153.985 86.6685C154.001 84.6987 153.833 82.7209 153.197 80.8556C152.683 79.2551 151.713 77.8387 150.407 76.7793C149.258 75.8628 147.899 75.2759 146.532 74.7452C145.165 74.2146 143.823 73.7483 142.568 73.0327C141.511 72.4546 140.588 71.66 139.859 70.7011C139.603 70.3543 139.444 69.9461 139.397 69.5179C139.35 69.0896 139.417 68.6565 139.591 68.2623C139.468 68.254 139.346 68.2296 139.229 68.1899L139.232 78.4758Z" fill="#56af89"/>
<path d="M74.8926 122.969C76.6424 124.221 78.5875 125.175 80.6492 125.791C81.536 126.064 82.4368 126.29 83.348 126.466C79.7487 117.984 82.4421 106.825 93.8 94.9256C95.7446 92.8848 97.8149 90.9675 99.9988 89.185C103.528 86.3147 106.664 84.1761 110.362 82.4555C112.018 81.6915 113.719 81.0284 115.454 80.4697C118.532 79.4451 121.71 78.7472 124.934 78.3873C125.665 78.2989 126.389 78.2345 127.12 78.1943C126.942 76.9377 126.977 75.6601 127.225 74.4155C127.9 70.9985 129.077 69.0341 131.215 66.3407C132.555 64.6442 134.649 60.5921 131.859 59.1931C130.098 58.3168 129.937 56.5131 130.765 55.4411C131.465 54.5085 132.88 54.0824 134.624 55.1731C135.83 55.945 137.262 55.9932 138.644 55.6153C139.718 54.9896 140.65 54.1462 141.378 53.139C143.404 50.2366 143.476 45.8387 140.306 43.7081C138.577 42.5423 136.374 42.2609 134.308 42.486C133.383 42.5876 132.471 42.787 131.588 43.081C131.584 43.0794 131.58 43.0783 131.576 43.0783C131.572 43.0783 131.568 43.0794 131.564 43.081C127.812 45.099 125.145 48.8296 123.859 53.0345C123.103 55.5189 122.251 57.9791 121.254 60.3911C120.434 62.3689 119.863 64.7729 118.038 66.1236C117.275 66.6877 116.409 67.0975 115.489 67.3296C112.04 69.5165 107.256 68.2542 103.486 67.7879C100.471 67.3757 97.4011 67.6842 94.529 68.6884C91.313 70.3151 88.5472 72.9121 86.304 76.2889C82.5976 81.8767 86.5211 89.9327 80.3223 94.3387C78.4463 95.6653 76.3023 96.4692 74.2521 97.4984C71.3255 98.9858 68.9617 101.1 68.0881 104.356C66.3621 110.925 69.4334 119.005 74.8926 122.969Z" fill="#56af89"/>
<path d="M226.461 254.6H79.8002" stroke="#1A1A1A" stroke-width="4.5" stroke-miterlimit="10"/>
<path d="M144.61 50.4939C144.987 51.2749 145.309 52.0807 145.575 52.9059C145.961 54.2459 145.543 55.0767 146.13 56.3551C146.331 56.7973 146.62 57.545 146.934 58.3007C147.022 58.1239 147.103 57.9791 147.151 57.8666C149.45 52.7451 146.427 50.2768 144.972 49.4326C144.879 49.7955 144.758 50.1503 144.61 50.4939Z" fill="#56af89"/>
<path d="M144.61 50.4939C144.987 51.2749 145.309 52.0807 145.575 52.9059C145.961 54.2459 145.543 55.0767 146.13 56.3551C146.331 56.7973 146.62 57.545 146.934 58.3007C147.022 58.1239 147.103 57.9791 147.151 57.8666C149.45 52.7451 146.427 50.2768 144.972 49.4326C144.879 49.7955 144.758 50.1503 144.61 50.4939Z" fill="#56af89"/>
<path d="M93.6582 136.894C92.2539 147.968 93.3902 167.178 116.068 181.876C120.15 184.521 123.824 188.257 127.424 191.486C137.24 200.357 146.579 209.743 155.4 219.605C160.8 225.592 166.313 231.884 171.788 237.946C174.595 241.045 177.432 244.114 180.3 247.155C182.412 249.382 185.762 254.597 189.157 254.597H210.024C211.9 254.597 213.604 253.062 213.578 251.178C213.562 250.363 213.254 249.582 212.709 248.977C212.156 248.358 211.391 247.968 210.565 247.884L198.888 246.686L142.472 156.965C139.561 152.334 136.98 144.712 139.232 139.719C147.808 120.729 147.071 102.322 147.071 102.322" stroke="#1A1A1A" stroke-width="4.5" stroke-miterlimit="10"/>
<path d="M122.867 187.648C120.407 196.291 116.435 205.068 113.155 210.594C111.966 212.612 110.399 214.381 108.54 215.804C101.819 220.953 92.318 220.403 85.8726 214.917L53.8171 187.632L37.9381 173.559L27.8238 185.96C27.3454 186.542 26.6664 186.923 25.9207 187.029C25.175 187.134 24.4168 186.957 23.7958 186.53C23.1748 186.104 22.7361 185.461 22.5664 184.727C22.3967 183.993 22.5082 183.222 22.8791 182.567L35.3331 160.704C35.7247 160.012 36.3748 159.504 37.1405 159.291C37.9065 159.079 38.7252 159.179 39.4174 159.57L46.0987 163.322L84.3798 184.762C85.0166 185.118 85.7289 185.318 86.4581 185.346C87.1874 185.373 87.9128 185.227 88.5745 184.919C89.2362 184.611 89.8154 184.151 90.2645 183.576C90.7134 183 91.0195 182.327 91.1575 181.61L95.6921 157.833" stroke="#1A1A1A" stroke-width="4.5" stroke-miterlimit="10"/>
<path d="M139.231 66.598V78.39V78.9608V79.1055C140.445 80.8743 141.056 83.3935 139.899 85.2695C138.347 87.7861 134.922 87.368 132.751 85.961C132.112 85.5477 131.503 85.091 130.926 84.5942C128.994 82.9154 127.743 80.5873 127.41 78.0496C127.231 76.793 127.267 75.5154 127.514 74.2708C128.195 70.8565 129.369 68.8947 131.51 66.1933C132.85 64.5049 134.941 60.4474 132.148 59.0484C128.876 57.4163 131.143 52.6405 134.914 55.0284C137.84 56.8857 142.045 54.5701 143.782 52.0804C145.808 49.178 145.88 44.7801 142.71 42.6495C140.981 41.4837 138.778 41.2023 136.712 41.4274C130.417 42.1189 125.936 47.0393 124.143 52.8925C123.387 55.3768 122.535 57.8371 121.538 60.2491C120.718 62.2269 120.147 64.6309 118.322 65.9816C114.838 68.5785 109.816 67.2197 105.884 66.7373C97.6994 65.7323 91.0986 69.3584 86.5881 76.1468C82.8817 81.7346 86.8052 89.7907 80.6063 94.1966C78.7303 95.5232 76.5863 96.3272 74.5361 97.3563C71.6096 98.8437 69.2458 100.958 68.3855 104.214C66.6489 110.775 69.7255 118.855 75.1793 122.819C77.6798 124.636 80.6063 125.721 83.6455 126.316" stroke="#1A1A1A" stroke-width="4.5" stroke-miterlimit="10"/>
<path d="M155.389 88.1961C155.405 88.046 155.41 87.9013 155.418 87.7593C155.555 85.1677 155.539 82.4823 154.694 79.9873C154.176 78.3884 153.206 76.9733 151.902 75.9137C150.749 74.9998 149.391 74.4075 148.029 73.8769C146.668 73.3462 145.317 72.8853 144.066 72.167C143.006 71.5914 142.082 70.7954 141.356 69.8327C141.102 69.487 140.943 69.0802 140.896 68.6533C140.849 68.2266 140.915 67.7949 141.088 67.402" stroke="#1A1A1A" stroke-width="4.5" stroke-miterlimit="10"/>
<path d="M136.694 63.9394C137.642 65.2955 138.929 66.7588 140.55 67.2868C142.649 67.9702 144.061 66.188 144.814 64.454C145.264 63.4222 145.575 62.3234 145.94 61.2568C146.058 60.9057 146.13 60.7368 146.532 60.7208C146.934 60.7047 147.357 60.7851 147.77 60.7851C147.799 60.7843 147.828 60.7757 147.853 60.7604C147.878 60.7451 147.898 60.7234 147.912 60.6974C147.926 60.6714 147.933 60.6425 147.932 60.613C147.931 60.5838 147.922 60.5551 147.907 60.5305C147.352 59.6863 146.524 57.3842 146.106 56.4622C145.524 55.1839 145.945 54.3558 145.554 53.0131C145.287 52.1887 144.967 51.3828 144.594 50.6011" stroke="#1A1A1A" stroke-width="4.5" stroke-miterlimit="10"/>
<path d="M145.213 48.1221C145.213 48.1221 150.935 50.317 147.979 56.9125C147.797 57.3118 147.349 58.1453 147.137 58.5205" stroke="#1A1A1A" stroke-width="4.5" stroke-miterlimit="10"/>
<path d="M206.931 29.3165C206.931 29.3165 206.963 29.3327 207.027 29.3569L206.931 29.3165Z" fill="#56af89"/>
<path d="M144.897 64.2637C144.439 64.3267 143.974 64.2203 143.589 63.9649C143.203 63.7092 142.924 63.322 142.804 62.8755" stroke="#1A1A1A" stroke-width="4.5" stroke-miterlimit="10"/>
<path d="M145.864 55.4304C144.68 54.4656 143.38 55.6984 142.586 56.5936" stroke="#1A1A1A" stroke-width="4.5" stroke-miterlimit="10"/>
<path d="M127.418 78.0524C123.445 78.3038 119.521 79.0667 115.744 80.3223C109.58 82.343 105.335 84.9507 100.299 89.0377C98.1156 90.8236 96.0453 92.7436 94.1002 94.7863C82.7316 106.685 80.0436 117.85 83.6482 126.33C86.5774 133.239 93.331 137.524 100.251 139.708C104.777 141.134 109.494 141.748 114.227 141.885C119.868 142.045 125.558 141.831 131.111 140.759C133.451 140.309 136.147 139.939 137.543 137.765C138.939 135.592 139.057 132.66 138.02 130.331C137.047 128.163 134.421 125.831 132.046 127.533C131.783 127.723 131.566 127.971 131.413 128.257C131.259 128.543 131.172 128.86 131.159 129.184" stroke="#1A1A1A" stroke-width="4.5" stroke-miterlimit="10"/>
<path d="M123.127 92.3904C123.421 101.277 115.891 106.233 115.891 106.233C113.393 108.256 110.965 110.429 108.923 112.919C107.618 114.508 106.406 116.288 105.806 118.279C105.357 119.637 105.365 121.104 105.827 122.457C106.339 123.709 107.184 124.795 108.271 125.598C110.303 127.188 112.774 128.01 115.223 128.723C117.922 129.496 120.672 130.081 123.451 130.476C125.059 130.706 125.737 130.208 126.471 128.817C127.136 127.557 127.68 126.099 128.91 125.277C130.615 124.132 132.903 123.867 134.876 124.339C137.918 125.062 138.695 127.474 136.216 127.962" stroke="#1A1A1A" stroke-width="4.5" stroke-miterlimit="10"/>
<path d="M121.271 152.682L75.0539 141.515L64.0552 187.032L108.991 198.202L110.433 197.54L121.271 152.682Z" fill="white"/>
<path d="M99.9447 146.282C102.137 130.937 106.889 127.142 109.981 126.383L109.778 126.271C100.441 122.637 93.9656 140.617 92.5908 144.822L99.9447 146.282Z" fill="#D7E8F0"/>
<path d="M99.8163 147.499C102.009 132.154 106.889 127.131 109.982 126.384L109.778 126.271C100.441 122.637 93.6979 141.483 92.3177 145.685L99.8163 147.499Z" fill="#D7E8F0"/>
<path d="M109.778 126.271C99.2187 122.165 92.3177 145.685 92.3177 145.685L99.8217 147.499C104.182 123.915 113.538 128.203 113.538 128.203C113.208 128.104 109.778 126.271 109.778 126.271Z" stroke="#1A1A1A" stroke-width="4.5" stroke-miterlimit="10"/>
<path d="M74.5386 143.684L64.0563 187.046L100.518 195.861L111 152.498L74.5386 143.684Z" fill="#56af89"/>
<path d="M75.0952 141.388L64.0574 187.048L102.449 196.329L113.487 150.669L75.0952 141.388Z" fill="white"/>
<path d="M75.2753 144.861L65.7691 184.186C65.4995 185.301 66.185 186.423 67.2999 186.693L99.7239 194.531C100.839 194.801 101.961 194.115 102.231 193L111.737 153.676C112.007 152.561 111.321 151.438 110.206 151.169L77.7822 143.331C76.6673 143.061 75.5449 143.746 75.2753 144.861Z" fill="#56af89"/>
<path d="M75.0604 141.531L64.0574 187.047L102.449 196.328L113.452 150.811L75.0604 141.531Z" stroke="#1A1A1A" stroke-width="4.5" stroke-miterlimit="10"/>
<path d="M113.614 150.847L102.611 196.364L110.274 198.217L121.278 152.7L113.614 150.847Z" fill="white"/>
<path d="M113.614 150.847L102.611 196.364L110.274 198.217L121.278 152.7L113.614 150.847Z" stroke="#1A1A1A" stroke-width="4.5" stroke-miterlimit="10"/>
<path d="M110.271 198.202L107.803 191.853L102.606 196.35" stroke="#1A1A1A" stroke-width="4.5" stroke-miterlimit="10"/>
<path d="M117.44 151.758L107.803 191.853" stroke="#1A1A1A" stroke-width="4.5" stroke-miterlimit="10"/>
<path d="M201.984 77.921C201.839 77.9451 201.716 77.9693 201.558 78.0014C200.108 78.2544 198.734 78.8317 197.538 79.6898C196.227 80.7029 195.037 82.4636 194.458 83.9778C193.583 86.2773 192.621 88.5392 191.572 90.7636C189.989 94.1926 188.105 97.4748 185.944 100.572C183.701 103.724 181.007 106.919 177.615 108.88C177.189 109.138 176.74 109.356 176.275 109.532C175.704 109.773 167.672 100.532 166.787 99.503C163.242 95.3785 159.576 91.2942 155.419 87.7647C154.366 86.8642 153.275 85.9959 152.155 85.1838C148.282 82.3419 143.894 80.2802 139.234 79.1136" stroke="#1A1A1A" stroke-width="4.5" stroke-miterlimit="10"/>
<path d="M216.434 77.5833C216.45 77.5873 216.466 77.5873 216.482 77.5833C220.197 78.0174 218.741 82.0213 216.128 81.8927C213.242 81.748 210.364 81.8927 207.485 81.9409C206.692 81.9149 205.902 82.0602 205.17 82.3671C203.723 83.0585 203.586 84.6022 203.369 86.0011C203.079 87.8343 202.75 89.6674 202.361 91.4844C201.605 95.0863 200.673 98.64 199.603 102.162C198.912 104.445 198.148 106.718 197.344 108.966C194.997 115.591 192.038 122.618 187.061 127.726C184.311 130.556 180.709 132.647 176.649 132.341C170.933 131.915 165.433 129.045 160.585 125.78C160.565 125.766 160.546 125.75 160.529 125.732C158.719 124.514 156.985 123.188 155.335 121.76C155.335 121.76 148.654 115.811 146.612 111.453" stroke="#1A1A1A" stroke-width="4.5" stroke-miterlimit="10"/>
<path d="M226.996 73.9814V74.3566C226.996 76.9455 224.911 77.3904 223.11 77.4333L188.251 78.2373C186.724 78.2775 185.44 76.9401 185.408 75.2705V75.2008C185.408 73.5633 186.608 72.2019 188.117 72.1644C188.117 72.1644 207.617 71.615 222.719 71.1996C223.005 72.1135 223.708 72.821 224.579 73.3731C225.307 73.8107 226.148 74.0224 226.996 73.9814Z" stroke="#1A1A1A" stroke-width="4.5" stroke-miterlimit="10"/>
<path d="M245.515 37.0966C245.515 37.523 245.414 37.9437 245.22 38.324L229.641 70.283C229.458 70.6523 229.197 70.9777 228.877 71.2366C228.556 71.4957 228.184 71.6822 227.784 71.7838C227.14 71.9468 226.459 71.8763 225.862 71.5855C225.385 71.3507 224.983 70.987 224.702 70.5357C224.421 70.0842 224.273 69.5632 224.273 69.0315C224.276 68.6061 224.373 68.187 224.557 67.804L240.144 35.8423C240.427 35.2715 240.895 34.8132 241.471 34.5415C242.048 34.27 242.699 34.2011 243.32 34.3458C243.94 34.4908 244.493 34.8411 244.89 35.3398C245.286 35.8386 245.503 36.4566 245.504 37.0939L245.515 37.0966Z" stroke="#1A1A1A" stroke-width="4.5" stroke-miterlimit="10"/>
<path d="M203.123 30.5226C207.85 30.5226 211.682 26.6901 211.682 21.9626C211.682 17.2351 207.85 13.4027 203.123 13.4027C198.395 13.4027 194.563 17.2351 194.563 21.9626C194.563 26.6901 198.395 30.5226 203.123 30.5226Z" fill="#56af89"/>
<path d="M200.403 24.9079C200.119 24.8017 199.853 24.6525 199.615 24.4657C199.195 24.1489 198.906 23.6888 198.803 23.1729C198.7 22.657 198.791 22.1213 199.057 21.6678C199.231 21.3733 199.471 21.1231 199.758 20.9371C200.045 20.7511 200.371 20.6343 200.711 20.5958C200.522 20.1533 200.483 19.6614 200.599 19.1947C200.715 18.7279 200.98 18.3117 201.354 18.0088C201.728 17.706 202.19 17.5332 202.67 17.5164C203.151 17.4996 203.624 17.6398 204.018 17.9158C204.846 18.492 205.42 19.5077 205.771 20.435C205.952 20.9219 206.085 21.4255 206.167 21.9385C206.207 22.2065 206.481 23.6805 206.266 23.8306C204.851 24.8114 202.217 25.5994 200.403 24.9079Z" fill="white"/>
<g opacity="0.72">
<path opacity="0.72" d="M195.9 48.3794C198.502 48.3794 200.612 46.2703 200.612 43.668C200.612 41.066 198.502 38.9565 195.9 38.9565C193.298 38.9565 191.189 41.066 191.189 43.668C191.189 46.2703 193.298 48.3794 195.9 48.3794Z" fill="#56af89"/>
<path opacity="0.72" d="M196.832 45.6673C196.719 45.7906 196.587 45.8954 196.441 45.9782C196.191 46.124 195.897 46.1738 195.613 46.1181C195.33 46.0623 195.076 45.9047 194.9 45.6753C194.785 45.525 194.706 45.35 194.67 45.1637C194.634 44.9777 194.642 44.7858 194.694 44.6033C194.43 44.6049 194.173 44.5211 193.961 44.3643C193.749 44.2072 193.593 43.9859 193.518 43.7331C193.442 43.4802 193.451 43.2097 193.542 42.9624C193.633 42.7147 193.802 42.5036 194.024 42.3602C194.526 42.082 195.099 41.9555 195.672 41.9957C195.958 42.0037 196.243 42.0415 196.521 42.1083C196.663 42.1404 197.473 42.3119 197.505 42.4513C197.711 43.3813 197.564 44.8901 196.832 45.6673Z" fill="white"/>
</g>
<path d="M222.423 33.3856L217.8 35.8504C216.123 36.7442 215.488 38.8287 216.382 40.5056L218.847 45.1291C219.74 46.8063 221.825 47.4411 223.502 46.5471L228.125 44.0826C229.803 43.1885 230.437 41.1043 229.543 39.4271L227.079 34.8036C226.185 33.1267 224.101 32.4918 222.423 33.3856Z" fill="#56af89"/>
<path d="M224.275 45.233L227.623 43.4482C228.32 43.0735 228.842 42.4381 229.073 41.6804C229.304 40.9225 229.226 40.1043 228.855 39.404L226.711 35.384C226.337 34.6856 225.702 34.1638 224.944 33.9328C224.186 33.7018 223.368 33.7803 222.667 34.1512L222.442 34.2718C221.606 35.4323 220.494 37.4182 222.174 38.0426C224.586 38.9458 223.881 40.2992 222.978 42.0331C222.212 43.4884 222.016 45.1902 224.275 45.233Z" fill="white"/>
<path d="M219.063 40.3661C219.762 40.3661 220.328 39.7996 220.328 39.1011C220.328 38.4025 219.762 37.8362 219.063 37.8362C218.365 37.8362 217.798 38.4025 217.798 39.1011C217.798 39.7996 218.365 40.3661 219.063 40.3661Z" fill="white"/>
<path d="M203.482 61.4791C203.951 61.7069 204.45 61.8659 204.964 61.9508C205.908 62.0955 206.874 61.9929 207.766 61.6528C208.659 61.3127 209.448 60.747 210.056 60.0105C210.525 59.4263 210.876 58.6946 211.369 58.105C211.707 57.6749 212.158 57.3479 212.672 57.1617C212.848 57.1241 213.013 57.044 213.151 56.9285C213.489 56.5801 212.916 56.2853 212.8 56.0039C212.627 55.5499 212.627 55.0482 212.8 54.5942C213.24 53.4008 213.253 52.0916 212.835 50.8899C212.418 49.6882 211.597 48.6685 210.512 48.0046C209.427 47.3405 208.145 47.0736 206.885 47.2489C205.625 47.4244 204.465 48.0314 203.603 48.9662C202.75 49.8855 202.238 51.0593 201.708 52.1822C201.236 53.1819 200.735 54.1761 200.475 55.2508C199.872 57.7968 201.233 60.383 203.482 61.4791Z" fill="#56af89"/>
<path d="M208.269 52.4342C208.927 52.4342 209.461 51.9003 209.461 51.2416C209.461 50.5828 208.927 50.049 208.269 50.049C207.61 50.049 207.076 50.5828 207.076 51.2416C207.076 51.9003 207.61 52.4342 208.269 52.4342Z" fill="white"/>
<path d="M206.706 55.7252C207.364 55.7252 207.898 55.1913 207.898 54.5326C207.898 53.8741 207.364 53.34 206.706 53.34C206.047 53.34 205.513 53.8741 205.513 54.5326C205.513 55.1913 206.047 55.7252 206.706 55.7252Z" fill="white"/>
<path d="M205.24 58.8126C205.899 58.8126 206.433 58.2784 206.433 57.62C206.433 56.9612 205.899 56.4274 205.24 56.4274C204.581 56.4274 204.047 56.9612 204.047 57.62C204.047 58.2784 204.581 58.8126 205.24 58.8126Z" fill="white"/>
<g opacity="0.54">
<path opacity="0.54" d="M176.612 66.3379C176.975 66.29 177.333 66.2157 177.684 66.1155L181.72 64.9792C182.956 64.6308 184.256 64.2449 185.132 63.3042C186.756 61.5595 186.231 58.7884 185.601 56.4889C185.088 54.6076 184.575 52.7262 184.06 50.8449C183.706 49.5477 183.342 48.2292 182.637 47.0929C181.932 45.9565 180.817 44.981 179.488 44.772C178.51 44.6192 177.518 44.8819 176.561 45.1418L172.689 46.2138C171.418 46.5595 170.078 46.9481 169.189 47.921C167.607 49.6496 168.117 52.3617 168.722 54.621L170.269 60.3964C171.217 63.867 172.994 66.7936 176.612 66.3379Z" fill="#56af89"/>
<path opacity="0.54" d="M176.345 58.4614C176.584 58.6949 176.88 58.861 177.204 58.9436C177.528 59.0261 177.867 59.0218 178.189 58.9315C178.511 58.8409 178.803 58.6675 179.036 58.4282C179.269 58.1892 179.435 57.8927 179.518 57.569L179.968 55.8056L180.416 54.0394C180.498 53.7157 180.493 53.3759 180.403 53.0545C180.312 52.7329 180.138 52.4411 179.899 52.2082C179.66 51.975 179.363 51.8092 179.04 51.7269C178.716 51.6449 178.376 51.6492 178.055 51.74L176.305 52.2331L174.552 52.7263C174.231 52.8176 173.94 52.9921 173.707 53.2317C173.475 53.4713 173.31 53.768 173.229 54.0917C173.147 54.4152 173.152 54.7547 173.243 55.0758C173.334 55.3969 173.508 55.6882 173.748 55.9208L175.053 57.1911L176.345 58.4614Z" fill="white"/>
</g>
</svg>
